<?xml version="1.0" encoding="UTF-8"?>
<svg version="1.1" xmlns="http://www.w3.org/2000/svg" width="577" height="552">
<path d="M0 0 C190.41 0 380.82 0 577 0 C577 182.16 577 364.32 577 552 C386.59 552 196.18 552 0 552 C0 369.84 0 187.68 0 0 Z " fill="#12518C" transform="translate(0,0)"/>
<path d="M0 0 C190.41 0 380.82 0 577 0 C577 182.16 577 364.32 577 552 C386.59 552 196.18 552 0 552 C0 369.84 0 187.68 0 0 Z M266.8125 25.3125 C266.03519531 25.70050781 265.25789062 26.08851562 264.45703125 26.48828125 C261.83851148 27.96984054 261.83851148 27.96984054 259.4921875 30.49609375 C254.95553874 34.38165275 249.02353332 34.77804801 243.3125 35.75 C241.05838311 36.16030279 238.80446681 36.5717096 236.55078125 36.984375 C235.55731689 37.15678711 234.56385254 37.32919922 233.5402832 37.50683594 C230.8917666 37.96405972 230.8917666 37.96405972 228 39 C228 39.66 228 40.32 228 41 C226.2984375 41.1546875 226.2984375 41.1546875 224.5625 41.3125 C220.67416025 41.7916968 217.22818776 42.81490438 213.56640625 44.18359375 C211.31816901 44.89878642 209.18544939 45.36076685 206.875 45.80859375 C201.37902727 46.99508894 196.50755699 49.24434228 191.4375 51.625 C190.06754883 52.25535156 190.06754883 52.25535156 188.66992188 52.8984375 C186.44286735 53.92451498 184.21983587 54.95842164 182 56 C182 56.66 182 57.32 182 58 C181.1126416 58.11085937 180.2252832 58.22171875 179.31103516 58.3359375 C176.00294306 58.99940974 173.90551503 59.91777847 171.0234375 61.625 C170.11094238 62.1624585 169.19844727 62.69991699 168.25830078 63.25366211 C167.30681152 63.82995361 166.35532227 64.40624512 165.375 65 C164.3938623 65.58724854 163.41272461 66.17449707 162.40185547 66.77954102 C155.23470609 71.12267451 148.5536661 75.77392543 142 81 C139.78275126 82.61254454 137.55998523 84.216352 135.328125 85.80859375 C134.88984375 86.20175781 134.4515625 86.59492187 134 87 C134 87.66 134 88.32 134 89 C133.11248047 89.41185547 133.11248047 89.41185547 132.20703125 89.83203125 C118.46177578 97.1060691 106.43953966 112.92407247 97.30615234 125.24951172 C95.99336148 127.00889686 94.65048581 128.74148179 93.30078125 130.47265625 C73.99722854 155.56244716 51 195.49739894 51 228 C49.84242187 227.95359375 48.68484375 227.9071875 47.4921875 227.859375 C45.95315094 227.82183752 44.4140863 227.78543949 42.875 227.75 C41.73417969 227.69972656 41.73417969 227.69972656 40.5703125 227.6484375 C34.29139419 227.54018029 31.05708136 229.08621148 26.43769932 233.48907185 C20.8349303 239.81555005 21.16591168 246.23162383 21.27124023 254.32299805 C21.26801699 255.76433079 21.26219382 257.2056597 21.25398254 258.64697266 C21.23950683 262.541727 21.26231121 266.43544161 21.29284167 270.33007026 C21.31929047 274.41297103 21.31390884 278.49584266 21.3127594 282.57881165 C21.31556394 289.43072809 21.34154631 296.28224454 21.38256836 303.1340332 C21.42979603 311.05150573 21.44556044 318.96854113 21.4433617 326.88614434 C21.44133454 335.32640617 21.46215581 343.76649996 21.48970151 352.20671105 C21.49608968 354.63517093 21.49822421 357.06360364 21.49941826 359.49207115 C21.50243485 363.30814186 21.52077496 367.1238466 21.55091667 370.93979645 C21.55966733 372.33899252 21.56337268 373.73823072 21.56163406 375.13745308 C21.56015784 377.04896575 21.57901382 378.96046176 21.59886169 380.87187195 C21.60388923 381.94090098 21.60891676 383.00993002 21.61409664 384.11135387 C22.30770667 389.30331159 25.57918371 393.16453931 29 397 C36.58738343 402.06999171 49.87274147 399.05608052 58.375 397.5 C59.08672363 397.35731689 59.79844727 397.21463379 60.53173828 397.06762695 C62.68323638 396.6494869 64.82982749 396.30653093 67 396 C67.84208008 395.86827393 68.68416016 395.73654785 69.55175781 395.60083008 C72.27016715 395.35363267 74.35226871 395.32105127 77 396 C79.75538856 398.47640068 81.28894457 401.43336806 83 404.6875 C84.0132537 406.44428534 85.03152197 408.19818761 86.0546875 409.94921875 C86.54936523 410.81337402 87.04404297 411.6775293 87.55371094 412.56787109 C92.78617792 421.36696565 99.75494645 429.04163629 106.6953125 436.51171875 C108.70226197 438.67854385 110.64223282 440.88173857 112.5625 443.125 C130.45385099 463.66225501 153.12102425 479.23595351 177 492 C177.60730957 492.32629395 178.21461914 492.65258789 178.84033203 492.98876953 C186.12404833 496.86824824 193.42428893 500.06591129 201.2578125 502.6640625 C204.43664532 503.79888591 207.45824415 505.06947799 210.546875 506.421875 C217.2555411 509.23753703 224.04192581 511.01339645 231.125 512.625 C231.77339844 512.77341339 232.42179688 512.92182678 233.08984375 513.07473755 C277.84567623 523.23245215 323.55058198 520.59666899 367 506 C368.01707031 505.69578125 369.03414063 505.3915625 370.08203125 505.078125 C378.10318916 502.6299001 385.40324596 499.0099343 392.80664062 495.13720703 C395.05256203 493.97274778 397.31328393 492.84200832 399.578125 491.71484375 C415.16205654 483.86468072 429.69777741 474.31744652 443 463 C444.15363977 462.03124277 445.30728613 461.06249341 446.4609375 460.09375 C455.81624339 452.19743807 464.05395546 444.19565817 471.70947266 434.60253906 C473.07550281 432.90624282 474.46375378 431.22996032 475.85546875 429.5546875 C482.40500607 421.60854196 488.23122991 413.39058488 493.72265625 404.6796875 C494.12758301 404.04772461 494.53250977 403.41576172 494.94970703 402.76464844 C496.14471312 400.85174326 496.14471312 400.85174326 497.24609375 398.0078125 C499 396 499 396 500.82128906 395.62841797 C506.78074571 395.45159893 512.51930422 396.74649839 518.3125 398 C533.18125015 401.27776065 533.18125015 401.27776065 547.3828125 397.20703125 C550.97030445 394.52941044 553.31130819 391.09662878 555 387 C555.30589337 384.15328863 555.30589337 384.15328863 555.26742554 380.97866821 C555.27595551 379.74495987 555.28448547 378.51125153 555.29327393 377.24015808 C555.29257492 375.87576281 555.29165187 374.51136764 555.29052734 373.14697266 C555.29651273 371.70785676 555.3033183 370.26874408 555.31088257 368.82963562 C555.32854883 364.92255226 555.33323821 361.0155565 555.33451414 357.10843706 C555.33593594 354.66673783 555.34020608 352.22506086 555.34550858 349.78336716 C555.36401089 341.2631158 555.37217893 332.74292703 555.37060547 324.22265625 C555.36940399 316.28369028 555.39050686 308.34499614 555.4220928 300.40609896 C555.44825442 293.58728432 555.45897282 286.76855848 555.45769465 279.94969404 C555.45718498 275.8783388 555.46287066 271.80722515 555.48405075 267.73591995 C555.50343141 263.90595645 555.50355916 260.07646502 555.48901749 256.24648476 C555.48692804 254.84284462 555.49163848 253.43917494 555.5037384 252.0355854 C555.7851207 242.15571201 555.7851207 242.15571201 551 234 C550.14148438 233.06800781 549.28296875 232.13601562 548.3984375 231.17578125 C544.28960307 227.94482554 539.65485248 228.21978864 534.625 228.1875 C533.69816406 228.16236328 532.77132813 228.13722656 531.81640625 228.11132812 C529.54384359 228.05275692 527.27319322 228.01625987 525 228 C524.88785156 227.08605469 524.77570313 226.17210937 524.66015625 225.23046875 C523.28091348 215.47698405 520.69311233 206.33592186 517.5625 197 C516.98737671 195.2833313 516.98737671 195.2833313 516.40063477 193.53198242 C514.44588273 187.8308651 512.35937024 182.26877298 509.81225586 176.8046875 C509 175 509 175 508 172 C507.34 172 506.68 172 506 172 C505.78174561 171.10643799 505.78174561 171.10643799 505.55908203 170.19482422 C503.66342527 163.14462352 500.66188362 157.33692782 496.875 151.125 C496.00331177 149.67492554 496.00331177 149.67492554 495.11401367 148.19555664 C490.79839229 141.10386036 486.1853123 134.48625364 481 128 C480.11927319 126.84743154 479.2418241 125.69235311 478.3671875 124.53515625 C477.47404215 123.3567073 476.58081463 122.17832063 475.6875 121 C475.27862549 120.45915771 474.86975098 119.91831543 474.44848633 119.36108398 C472.14114696 116.35029328 469.71561893 113.64327663 467 111 C465.92659726 109.78034287 464.8640772 108.55102426 463.8125 107.3125 C456.95352331 98.69539736 456.95352331 98.69539736 448 93 C446.82796714 91.566819 445.65813135 90.13174197 444.50341797 88.68457031 C441.7510368 85.60054464 438.39444481 83.29429512 435.0625 80.875 C434.02706055 80.10736328 434.02706055 80.10736328 432.97070312 79.32421875 C426.38617639 73.96708457 426.38617639 73.96708457 418.875 70.5 C416.1741367 69.77976979 414.96663203 67.96663203 413 66 C407.71186727 62.61559505 400.41584523 58 394 58 C394 57.34 394 56.68 394 56 C393.40316406 55.79246094 392.80632812 55.58492187 392.19140625 55.37109375 C385.27204428 52.91384633 378.49966871 50.17801054 371.75219727 47.28686523 C367.52439661 45.49768346 367.52439661 45.49768346 363 45 C363 44.34 363 43.68 363 43 C359.37628677 42.0367574 355.75080682 41.080329 352.125 40.125 C351.11179687 39.85558594 350.09859375 39.58617188 349.0546875 39.30859375 C343.4476807 37.83495735 337.89006719 36.53001709 332.1640625 35.60839844 C328.83413703 34.67223257 326.55275563 32.68124566 323.9140625 30.515625 C320.84596197 28.0861903 317.58484007 26.53003756 314 25 C313.19691406 24.62617188 312.39382813 24.25234375 311.56640625 23.8671875 C304.80664922 21.12493146 298.51874705 20.63761267 291.3125 20.625 C290.43376221 20.62338867 289.55502441 20.62177734 288.6496582 20.62011719 C280.97062877 20.74996456 273.71059764 21.76523706 266.8125 25.3125 Z " fill="#CDE2F0" transform="translate(0,0)"/>
<path d="M0 0 C1.52938704 1.19240345 3.03053739 2.42198416 4.5 3.6875 C5.26570313 4.33203125 6.03140625 4.9765625 6.8203125 5.640625 C10.99015065 9.45708703 13.65171031 12.81991901 15.95654297 18.01025391 C18.42493125 23.3877638 20.47098645 26.6180077 26.16796875 28.8125 C30.42853611 30.16800958 34.74742719 31.16906799 39.11523438 32.11157227 C42.71055718 32.97985303 46.08095003 34.29310998 49.5 35.6875 C50.4796875 36.07292969 51.459375 36.45835938 52.46875 36.85546875 C53.72171875 37.36013672 53.72171875 37.36013672 55 37.875 C55.8559375 38.21917969 56.711875 38.56335938 57.59375 38.91796875 C58.2228125 39.17191406 58.851875 39.42585938 59.5 39.6875 C59.5 40.3475 59.5 41.0075 59.5 41.6875 C60.31855469 41.92726562 61.13710938 42.16703125 61.98046875 42.4140625 C66.17437444 43.93150229 69.92369844 45.89482582 73.8125 48.0625 C74.59214111 48.4958667 75.37178223 48.9292334 76.17504883 49.37573242 C84.03197702 53.83818938 91.35408259 58.97507773 98.62890625 64.32080078 C100.51314524 65.69710165 102.41666401 67.04298553 104.32421875 68.38671875 C107.39843985 70.61392198 109.89030166 72.94044911 112.5 75.6875 C115.5876733 78.816264 118.73433005 81.87459538 121.90625 84.91796875 C132.75515359 95.42051736 142.27220924 106.01737438 150.5 118.6875 C150.9120166 119.31833496 151.3240332 119.94916992 151.74853516 120.59912109 C155.33431969 126.13916564 158.73723758 131.76736764 161.5703125 137.734375 C162.26607064 139.19605176 162.9957839 140.64165015 163.7421875 142.078125 C166.18925341 146.79850067 168.13047093 151.37488922 169.69921875 156.44921875 C170.53778253 158.79310678 171.6107574 160.8216031 172.8125 163 C175.42607541 168.06778647 177.13789808 173.31712357 178.8125 178.75 C179.07909424 179.58893799 179.34568848 180.42787598 179.62036133 181.29223633 C181.30428117 186.9427475 181.75518954 191.79440198 181.5 197.6875 C177.21 197.6875 172.92 197.6875 168.5 197.6875 C167.22170987 193.85262961 166.20522086 190.50131287 165.375 186.625 C159.62628497 163.54476291 148.60753569 140.79709362 134.5 121.6875 C134.06719727 121.1006543 133.63439453 120.51380859 133.18847656 119.90917969 C126.52221882 110.97376482 119.19793238 102.74089246 111.5 94.6875 C110.86449219 94.01074219 110.22898437 93.33398438 109.57421875 92.63671875 C104.62791029 87.50152977 99.1074367 83.07684184 93.5 78.6875 C92.94812012 78.2538916 92.39624023 77.8202832 91.82763672 77.37353516 C82.57365732 70.16328372 72.91077874 64.28004987 62.55273438 58.79248047 C60.73897742 57.8161408 58.95294091 56.78868046 57.171875 55.75390625 C47.77737748 50.34604806 37.75879381 47.04607909 27.5 43.6875 C26.51 43.3575 25.52 43.0275 24.5 42.6875 C24.77481235 47.17610178 25.25290368 49.67892804 28.125 53.1875 C30.31445262 56.0097424 30.5 56.49172749 30.5 60.3125 C29.54394138 63.53919785 28.41718483 65.93675654 26.5 68.6875 C31.69087809 71.38487472 36.98658499 73.40989454 42.4765625 75.40625 C45.23569971 76.57549678 47.17652276 77.83809547 49.5 79.6875 C51.64733927 80.39264846 51.64733927 80.39264846 53.5 80.6875 C53.5 81.3475 53.5 82.0075 53.5 82.6875 C54.53060547 83.05488281 54.53060547 83.05488281 55.58203125 83.4296875 C59.00833455 84.90662145 62.06984174 86.78512355 65.1875 88.8125 C65.80544434 89.21355957 66.42338867 89.61461914 67.06005859 90.02783203 C77.05429988 96.60333207 85.81749637 104.49979305 94.5 112.6875 C95.29535156 113.42871094 96.09070313 114.16992188 96.91015625 114.93359375 C116.18580532 133.46133404 131.95725455 160.1372992 139.5 185.6875 C139.86867188 186.863125 140.23734375 188.03875 140.6171875 189.25 C141.5 192.6875 141.5 192.6875 141.5 197.6875 C119.06 197.6875 96.62 197.6875 73.5 197.6875 C73.17 197.0275 72.84 196.3675 72.5 195.6875 C72.5 196.6775 72.5 197.6675 72.5 198.6875 C69.86 199.0175 67.22 199.3475 64.5 199.6875 C64.17 200.6775 63.84 201.6675 63.5 202.6875 C53.93 202.6875 44.36 202.6875 34.5 202.6875 C34.20996094 198.26150391 34.20996094 198.26150391 33.9140625 193.74609375 C33.72056779 190.87316362 33.52447075 188.00042207 33.328125 185.12768555 C33.19356846 183.13860991 33.06169727 181.14935065 32.93261719 179.15991211 C32.74608086 176.29227475 32.54974068 173.42544726 32.3515625 170.55859375 C32.29626373 169.67602402 32.24096497 168.79345428 32.18399048 167.88414001 C31.82805877 162.89167276 31.22554598 158.402762 29.5 153.6875 C27.17569335 151.80649479 27.17569335 151.80649479 24.375 150.75 C23.46492188 150.34910156 22.55484375 149.94820312 21.6171875 149.53515625 C20.56917969 149.11556641 20.56917969 149.11556641 19.5 148.6875 C19.5721875 149.35652344 19.644375 150.02554688 19.71875 150.71484375 C20.58928248 159.72243682 20.59637079 168.65006141 20.5 177.6875 C18.85 177.6875 17.2 177.6875 15.5 177.6875 C15.46261719 176.47835937 15.42523438 175.26921875 15.38671875 174.0234375 C15.04600263 159.08115553 15.04600263 159.08115553 11.5 144.6875 C9.49248386 143.50978843 9.49248386 143.50978843 7.5 142.6875 C7.71329956 143.71387573 7.71329956 143.71387573 7.9309082 144.76098633 C9.42719984 152.66976914 9.78146342 160.31538775 9.70581055 168.35522461 C9.68717575 170.41076666 9.68530415 172.46586541 9.68554688 174.52148438 C9.64067963 184.54682037 9.64067963 184.54682037 8.5 185.6875 C6.29132169 185.78182985 4.07958479 185.80492431 1.86889648 185.80102539 C1.17624695 185.80117142 0.48359741 185.80131744 -0.2300415 185.8014679 C-2.52969446 185.80076874 -4.82926737 185.79297628 -7.12890625 185.78515625 C-8.71931412 185.78329208 -10.30972257 185.78186817 -11.90013123 185.78086853 C-16.0939593 185.77704329 -20.28775295 185.76721295 -24.48156738 185.75616455 C-28.75788914 185.74595057 -33.03421644 185.74137094 -37.31054688 185.73632812 C-45.70704708 185.72559069 -54.10351926 185.70851419 -62.5 185.6875 C-62.66146515 185.11484406 -62.8229303 184.54218811 -62.98928833 183.95217896 C-66.22984593 172.47944478 -69.56728381 161.06822846 -73.3046875 149.74609375 C-73.5934375 148.85792969 -73.8821875 147.96976563 -74.1796875 147.0546875 C-74.43476074 146.28237793 -74.68983398 145.51006836 -74.95263672 144.71435547 C-75.5 142.6875 -75.5 142.6875 -75.5 139.6875 C-78.47 140.6775 -78.47 140.6775 -81.5 141.6875 C-79.83940461 150.06331007 -77.52588118 157.89510357 -74.48193359 165.86108398 C-73.08836311 169.59527333 -72.14831017 172.68605122 -72.5 176.6875 C-74.15 176.6875 -75.8 176.6875 -77.5 176.6875 C-86.5 156.21618852 -86.5 156.21618852 -86.5 149.6875 C-87.49 149.6875 -88.48 149.6875 -89.5 149.6875 C-89.5 148.6975 -89.5 147.7075 -89.5 146.6875 C-92.14 147.6775 -94.78 148.6675 -97.5 149.6875 C-96.76349234 154.62409188 -94.90941629 159.05856819 -93.125 163.6875 C-90.25889472 171.28216953 -87.97090131 178.68805982 -86.5 186.6875 C-86.314375 187.69554687 -86.12875 188.70359375 -85.9375 189.7421875 C-85.54599975 192.37782309 -85.36593738 194.84012097 -85.375 197.5 C-85.37242187 198.26957031 -85.36984375 199.03914062 -85.3671875 199.83203125 C-85.5 201.6875 -85.5 201.6875 -86.5 202.6875 C-91.20518068 204.03286512 -94.84303838 204.28373821 -99.5 202.6875 C-104.36088537 197.59641388 -107.40577126 190.93796607 -110.5 184.6875 C-110.83 190.6275 -111.16 196.5675 -111.5 202.6875 C-124.04 202.6875 -136.58 202.6875 -149.5 202.6875 C-149.83 201.6975 -150.16 200.7075 -150.5 199.6875 C-152.4490625 199.7184375 -152.4490625 199.7184375 -154.4375 199.75 C-155.79165633 199.77149454 -157.14756083 199.75898199 -158.5 199.6875 C-158.83 199.3575 -159.16 199.0275 -159.5 198.6875 C-161.21774167 198.56442689 -162.94042739 198.50963442 -164.66235352 198.48217773 C-165.76341934 198.46223251 -166.86448517 198.44228729 -167.99891663 198.42173767 C-169.1968132 198.40502518 -170.39470978 198.38831268 -171.62890625 198.37109375 C-172.84827377 198.35031265 -174.0676413 198.32953156 -175.32395935 198.30812073 C-179.23674645 198.24249572 -183.14960317 198.18368028 -187.0625 198.125 C-189.70768962 198.08182709 -192.35287209 198.03821322 -194.99804688 197.99414062 C-201.49862336 197.8868012 -207.99926979 197.78505933 -214.5 197.6875 C-214.1971657 196.11644275 -213.89110788 194.5460067 -213.58374023 192.97583008 C-213.41365952 192.10122635 -213.2435788 191.22662262 -213.06834412 190.32551575 C-207.35835184 163.82211909 -191.91524091 139.18175894 -173.5 119.6875 C-172.39140313 118.3787398 -171.28709026 117.06633641 -170.1875 115.75 C-151.76250971 94.75897225 -125.14055009 77.11091145 -98.5 68.6875 C-98.58121094 67.98625 -98.66242188 67.285 -98.74609375 66.5625 C-99.25521996 58.91521655 -99.25521996 58.91521655 -96.9765625 55.2109375 C-95.23121252 53.2518712 -93.4524077 51.43858028 -91.5 49.6875 C-90.00256881 48.19006881 -90.16797307 46.69925761 -89.9375 44.625 C-89.7209375 42.6759375 -89.7209375 42.6759375 -89.5 40.6875 C-122.25337514 49.2914715 -150.55185228 64.82849439 -175.90869141 87.27978516 C-177.38343907 88.58438703 -178.86901208 89.8767239 -180.35546875 91.16796875 C-185.51547018 95.70346168 -190.14679672 100.37850359 -194.5 105.6875 C-194.91975098 106.18427246 -195.33950195 106.68104492 -195.77197266 107.19287109 C-215.02741442 129.86682873 -215.02741442 129.86682873 -226.5 156.6875 C-227.16 156.6875 -227.82 156.6875 -228.5 156.6875 C-228.61730469 157.3784375 -228.73460937 158.069375 -228.85546875 158.78125 C-229.58011562 162.04874863 -230.64995422 165.04898632 -231.8125 168.1875 C-233.91566763 173.97575673 -235.80864474 179.79208986 -237.5859375 185.6875 C-238.81311184 189.7151491 -240.1483412 193.70010653 -241.5 197.6875 C-245.79 197.6875 -250.08 197.6875 -254.5 197.6875 C-251.63734978 153.3164216 -220.40033181 109.88426148 -189.66772461 79.84082031 C-189.0103833 79.19725586 -188.35304199 78.55369141 -187.67578125 77.890625 C-187.08708252 77.31989258 -186.49838379 76.74916016 -185.8918457 76.16113281 C-184.39518809 74.71873663 -184.39518809 74.71873663 -183.5 72.6875 C-181.78673538 71.69907811 -180.07137542 70.71387293 -178.33984375 69.7578125 C-175.05548343 67.84716552 -172.28549847 65.52209212 -169.6875 62.76171875 C-167.3263962 60.52288639 -165.02382503 59.08881277 -162.1875 57.5 C-161.13433594 56.901875 -160.08117187 56.30375 -158.99609375 55.6875 C-158.4326123 55.3678125 -157.86913086 55.048125 -157.28857422 54.71875 C-154.73609273 53.24704896 -152.22110342 51.715795 -149.703125 50.18603516 C-134.06123919 40.6875 -134.06123919 40.6875 -130.5 40.6875 C-130.5 40.0275 -130.5 39.3675 -130.5 38.6875 C-129.64277344 38.44515625 -128.78554687 38.2028125 -127.90234375 37.953125 C-122.38968905 36.33723974 -117.44500948 34.8394587 -112.5546875 31.76171875 C-109.57003092 30.20129943 -106.43302837 29.13660511 -103.25 28.0625 C-102.59596191 27.83965332 -101.94192383 27.61680664 -101.26806641 27.38720703 C-97.30376152 26.0978505 -93.64034408 25.45096632 -89.5 25.125 C-85.98841354 24.57325293 -84.88034128 24.18449023 -82.69140625 21.32421875 C-81.57292359 19.25623283 -80.48994603 17.1687684 -79.4375 15.06640625 C-73.09913722 4.01260825 -61.7577292 -4.86355718 -49.5 -8.3125 C-32.26205544 -11.92401587 -14.80027302 -9.73044063 0 0 Z " fill="#3F525E" transform="translate(324.5,30.3125)"/>
<path d="M0 0 C1.1774176 0.08817993 2.35483521 0.17635986 3.56793213 0.26721191 C11.04644399 0.83026471 18.52372438 1.40801585 26 2 C25.17901682 5.94611638 23.65110936 7.79509038 20.875 10.75 C18.05378853 13.78413309 15.28473139 16.82381591 12.625 20 C-4.68772596 39.77462736 -28.1191726 53.65562894 -52 64 C-53.01191406 64.45761719 -54.02382813 64.91523438 -55.06640625 65.38671875 C-62.32124743 68.44901523 -69.79998947 70.32554629 -77.4375 72.1875 C-78.46166016 72.43773926 -79.48582031 72.68797852 -80.54101562 72.94580078 C-93.67998285 76.02641786 -106.52170388 77.37889748 -120 77.3125 C-120.71256958 77.31167419 -121.42513916 77.31084839 -122.15930176 77.30999756 C-151.43433817 77.23232542 -151.43433817 77.23232542 -164 72 C-166.7054907 71.36650576 -169.40815882 70.76616756 -172.125 70.1875 C-178.38752921 68.79314281 -183.97525218 66.96643375 -189.75 64.10546875 C-192.42263872 62.79234938 -195.14807429 61.8478698 -198 61 C-198 60.34 -198 59.68 -198 59 C-199.98 58.67 -201.96 58.34 -204 58 C-204 57.34 -204 56.68 -204 56 C-204.6909375 55.90589844 -205.381875 55.81179688 -206.09375 55.71484375 C-221.90649301 51.82541906 -236.65296539 36.90171442 -248 26 C-248.59022949 25.43700195 -249.18045898 24.87400391 -249.78857422 24.29394531 C-251.66183152 22.49871995 -253.52046382 20.68954552 -255.375 18.875 C-255.94597412 18.32553711 -256.51694824 17.77607422 -257.10522461 17.20996094 C-261.44794941 12.90092038 -264.76199591 8.17992784 -268 3 C-257.68659461 1.76967047 -247.35102672 0.84372233 -237 0 C-236.12132263 -0.07214722 -235.24264526 -0.14429443 -234.33734131 -0.21862793 C-156.94419976 -6.43935325 -77.40585546 -5.82524222 0 0 Z " fill="#E3EEF5" transform="translate(409,385)"/>
<path d="M0 0 C4.57344701 0.55435721 8.74420633 2.32414343 13 4 C13.88042969 4.33515625 14.76085937 4.6703125 15.66796875 5.015625 C16.56128906 5.36109375 17.45460938 5.7065625 18.375 6.0625 C19.62410156 6.54396484 19.62410156 6.54396484 20.8984375 7.03515625 C23 8 23 8 25 10 C27.06874034 10.6425235 27.06874034 10.6425235 29 11 C29 11.66 29 12.32 29 13 C29.68707031 13.24492188 30.37414062 13.48984375 31.08203125 13.7421875 C34.50833455 15.21912145 37.56984174 17.09762355 40.6875 19.125 C41.30544434 19.52605957 41.92338867 19.92711914 42.56005859 20.34033203 C52.55429988 26.91583207 61.31749637 34.81229305 70 43 C70.79535156 43.74121094 71.59070313 44.48242188 72.41015625 45.24609375 C91.68580532 63.77383404 107.45725455 90.4497992 115 116 C115.36867188 117.175625 115.73734375 118.35125 116.1171875 119.5625 C117 123 117 123 117 128 C94.56 128 72.12 128 49 128 C47.35 123.05 45.7 118.1 44 113 C32.92665945 88.18619172 10.41272702 74.27222176 -13.45703125 63.4296875 C-16.19291618 61.89154021 -17.23296499 60.76926453 -18.75 58.0625 C-19.33007812 57.05896484 -19.33007812 57.05896484 -19.921875 56.03515625 C-20.45554687 55.02775391 -20.45554687 55.02775391 -21 54 C-21.34385742 53.40171387 -21.68771484 52.80342773 -22.04199219 52.18701172 C-23.85895779 48.03910706 -23.45364658 43.52691412 -23.5 39.0625 C-23.54125 38.07314453 -23.5825 37.08378906 -23.625 36.06445312 C-23.7020477 28.90383225 -23.7020477 28.90383225 -21.734375 26.37060547 C-20.21558432 25.16807287 -18.60787105 24.08053711 -17 23 C-14.16515489 19.25848801 -13.56805304 16.3385653 -13.3125 11.6875 C-13.24675781 10.61886719 -13.18101562 9.55023438 -13.11328125 8.44921875 C-13.07589844 7.64097656 -13.03851563 6.83273438 -13 6 C-12.14535156 5.65066406 -11.29070312 5.30132812 -10.41015625 4.94140625 C-9.30542969 4.48636719 -8.20070313 4.03132813 -7.0625 3.5625 C-5.96035156 3.11003906 -4.85820312 2.65757813 -3.72265625 2.19140625 C-1.13431084 1.25575392 -1.13431084 1.25575392 0 0 Z " fill="#E3EEF5" transform="translate(349,100)"/>
<path d="M0 0 C0.66902344 0.42410156 1.33804688 0.84820312 2.02734375 1.28515625 C4.16432412 2.16123632 6.31112994 3.013559 8.46484375 3.84765625 C9.57730469 4.28207031 10.68976563 4.71648437 11.8359375 5.1640625 C14.58282104 6.12900201 17.16227612 6.80853752 20.02734375 7.28515625 C20.06601562 9.17234375 20.06601562 9.17234375 20.10546875 11.09765625 C20.4423194 22.39101749 21.83753981 32.43982285 25.02734375 43.28515625 C26.10138695 47.2754757 27.15446746 51.2145368 26.02734375 55.28515625 C23.66456905 57.57171241 20.97775143 58.88171908 18.02734375 60.28515625 C16.93421875 60.88328125 15.84109375 61.48140625 14.71484375 62.09765625 C12.02734375 63.28515625 12.02734375 63.28515625 9.02734375 63.28515625 C9.02734375 63.94515625 9.02734375 64.60515625 9.02734375 65.28515625 C8.09019531 65.65125 7.15304688 66.01734375 6.1875 66.39453125 C-28.42361544 80.11683895 -28.42361544 80.11683895 -53.97265625 106.28515625 C-54.59914063 107.17074219 -54.59914063 107.17074219 -55.23828125 108.07421875 C-59.17466061 114.16623442 -60.72061257 121.52902521 -62.97265625 128.28515625 C-81.12265625 128.28515625 -99.27265625 128.28515625 -117.97265625 128.28515625 C-112.04165414 98.63014569 -97.7020903 72.22920557 -76.97265625 50.28515625 C-75.86405938 48.97639605 -74.75974651 47.66399266 -73.66015625 46.34765625 C-62.29669523 33.40161276 -18.74177688 -6.79157459 0 0 Z " fill="#E3EEF5" transform="translate(227.97265625,99.71484375)"/>
<path d="M0 0 C2.42578125 -0.328125 2.42578125 -0.328125 5.3125 -0.25 C6.25738281 -0.23453125 7.20226562 -0.2190625 8.17578125 -0.203125 C10.86302743 -0.00985142 13.37485142 0.40707027 16 1 C14.5252724 5.25068544 12.31455212 8.70204285 9.6875 12.3125 C9.24656006 12.92005127 8.80562012 13.52760254 8.35131836 14.15356445 C-12.34456557 42.36738365 -37.65862747 66.87547785 -69 83 C-69.66 83 -70.32 83 -71 83 C-71 83.66 -71 84.32 -71 85 C-76.62470514 88.06802099 -81.69403048 89.89061647 -88 91 C-88 91.66 -88 92.32 -88 93 C-100.52418516 97.53642197 -113.01504453 101.97370253 -126 105 C-126.97356445 105.22993652 -127.94712891 105.45987305 -128.95019531 105.69677734 C-168.94600171 114.75995716 -217.497827 113.45489007 -255.06225586 95.89306641 C-257.56939836 94.73757601 -260.14462509 93.84643729 -262.75 92.9375 C-276.96707969 87.5246518 -290.70397082 79.93930297 -303 71 C-303.95519531 70.31679688 -304.91039062 69.63359375 -305.89453125 68.9296875 C-322.74838847 56.60406191 -338.20870283 42.54118885 -351 26 C-351.5269043 25.32291992 -352.05380859 24.64583984 -352.59667969 23.94824219 C-354.36156076 21.67797687 -356.11985991 19.40280335 -357.875 17.125 C-358.43509766 16.39893555 -358.99519531 15.67287109 -359.57226562 14.92480469 C-367 5.20015853 -367 5.20015853 -367 1 C-361.67038616 0.16683456 -356.24977376 -0.59407126 -351 1 C-347.13841202 4.53935587 -344.81714262 8.54313237 -342.21386719 13.04541016 C-340.22289528 16.2513074 -337.79242265 19.04062248 -335.3125 21.875 C-334.84634277 22.41487549 -334.38018555 22.95475098 -333.89990234 23.51098633 C-332.60339274 25.01032128 -331.3018419 26.50529263 -330 28 C-329.02546875 29.16015625 -329.02546875 29.16015625 -328.03125 30.34375 C-324.04514401 35.05460253 -319.71574697 39.03215948 -315 43 C-314.05253906 43.8353125 -313.10507812 44.670625 -312.12890625 45.53125 C-304.21474859 52.46694796 -295.8826368 58.3734754 -287 64 C-286.07695068 64.59119629 -286.07695068 64.59119629 -285.13525391 65.19433594 C-278.02041291 70.12939054 -278.02041291 70.12939054 -270 73 C-270 73.66 -270 74.32 -270 75 C-269.03707031 75.25136719 -268.07414062 75.50273437 -267.08203125 75.76171875 C-262.46395631 77.08100326 -258.11257372 78.96184179 -253.6875 80.8125 C-244.9259162 84.39446307 -236.15121957 87.21488193 -226.97216797 89.50488281 C-225.20644806 89.94817075 -223.44829771 90.42135953 -221.69140625 90.8984375 C-196.77421945 97.31024863 -165.14321794 98.29557978 -140.05908203 92.45751953 C-137.745456 91.94344137 -135.42456701 91.52848604 -133.08984375 91.12109375 C-116.09467439 88.09409183 -100.60164953 82.28127727 -85 75 C-84.32018066 74.68272949 -83.64036133 74.36545898 -82.93994141 74.03857422 C-73.77343632 69.71288042 -65.24211263 64.94174828 -57 59 C-56.38656738 58.56171875 -55.77313477 58.1234375 -55.14111328 57.671875 C-45.46253939 50.72486806 -36.56528952 43.27370519 -28 35 C-27.34902344 34.40058594 -26.69804687 33.80117188 -26.02734375 33.18359375 C-15.97988453 23.70620313 -7.62897218 11.44345827 0 0 Z " fill="#D4E6F1" transform="translate(464,391)"/>
<path d="M0 0 C7.5316012 3.91909868 10.67628855 10.36572338 13.20703125 18.1484375 C13.70203125 19.6334375 13.70203125 19.6334375 14.20703125 21.1484375 C14.31228391 23.50224785 14.35574637 25.85895821 14.36816406 28.21508789 C14.37561142 29.28892731 14.37561142 29.28892731 14.38320923 30.38446045 C14.39782183 32.75501468 14.40463375 35.12550185 14.41015625 37.49609375 C14.41591145 39.14936829 14.42166914 40.80264283 14.4274292 42.45591736 C14.4379387 45.92691356 14.4437807 49.39788661 14.44726562 52.86889648 C14.45272946 57.29480131 14.4767121 61.72039525 14.50523758 66.14620304 C14.52396357 69.56508746 14.52907498 72.98389877 14.5306015 76.40283012 C14.5336096 78.03295008 14.54157513 79.66306931 14.55478668 81.2931385 C14.65401976 94.48589076 13.74603302 106.44464881 4.0625 116.33984375 C0.3563109 118.68726585 -2.84748506 118.79703729 -7.10546875 118.7109375 C-7.86512939 118.69925537 -8.62479004 118.68757324 -9.4074707 118.67553711 C-15.29289496 118.44305937 -19.63537841 117.59561125 -23.79296875 113.1484375 C-30.37549051 105.17054247 -33.91509123 96.14283081 -33.92236328 85.81030273 C-33.92551544 84.52473984 -33.9286676 83.23917694 -33.93191528 81.91465759 C-33.930124 80.51211513 -33.92807268 79.10957298 -33.92578125 77.70703125 C-33.92645559 76.25936364 -33.92742671 74.81169615 -33.92868042 73.36402893 C-33.93015453 70.32690352 -33.92801422 67.28980753 -33.92333984 64.25268555 C-33.91767839 60.38864225 -33.92090046 56.52466897 -33.92691231 52.66062832 C-33.93055625 49.66719554 -33.92936127 46.67377885 -33.92678452 43.68034554 C-33.92612394 42.2576096 -33.92691276 40.83487213 -33.92926407 39.41213799 C-33.96403275 12.43226737 -33.96403275 12.43226737 -25.10546875 2.6484375 C-18.4629108 -3.00716276 -8.02198887 -2.44586514 0 0 Z " fill="#F8F9FB" transform="translate(523.79296875,253.8515625)"/>
<path d="M0 0 C4.81960794 -0.14947492 9.63783739 -0.25773603 14.45922852 -0.32958984 C16.0955356 -0.35957242 17.73168457 -0.40037433 19.36743164 -0.45263672 C35.77322462 -0.96328392 35.77322462 -0.96328392 42.43432617 4.46264648 C48.37621586 10.29705773 51.34114565 16.21153927 51.46777344 24.50927734 C51.4577832 25.26934082 51.44779297 26.0294043 51.4375 26.8125 C51.43137695 27.60350098 51.42525391 28.39450195 51.41894531 29.20947266 C51.21794637 36.74693309 49.73370456 42.81067801 44.75 48.625 C43.88375 49.305625 43.88375 49.305625 43 50 C44.19534912 52.82537064 45.56124041 54.67075074 47.5625 57.0625 C52.12440533 62.56018078 51.21884695 68.35329967 51.25 75.1875 C51.270625 76.29931641 51.29125 77.41113281 51.3125 78.55664062 C51.34356156 85.11451315 50.76799331 90.03424599 48 96 C47.34 96 46.68 96 46 96 C45.75000244 96.75845215 45.50000488 97.5169043 45.24243164 98.29833984 C43.13105198 102.88952226 39.48617005 104.90857973 35 107 C31.02641708 107.93310144 27.13288888 108.19568771 23.0625 108.375 C22.04220703 108.44332031 21.02191406 108.51164062 19.97070312 108.58203125 C7.05947532 109.38949795 7.05947532 109.38949795 1 109 C0 108 0 108 -0.12304783 106.19027615 C-0.12212604 105.3947688 -0.12120424 104.59926146 -0.12025452 103.77964783 C-0.12162918 102.86954453 -0.12300385 101.95944122 -0.12442017 101.02175903 C-0.12082489 100.01547455 -0.11722961 99.00919006 -0.11352539 97.97241211 C-0.11367142 96.91888046 -0.11381744 95.86534882 -0.1139679 94.77989197 C-0.11326826 91.279022 -0.10547348 87.77820448 -0.09765625 84.27734375 C-0.09579225 81.85738657 -0.09436826 79.43742901 -0.09336853 77.01747131 C-0.08954192 70.63384976 -0.07971041 64.25025079 -0.06866455 57.86663818 C-0.05845351 51.35836086 -0.05387157 44.8500799 -0.04882812 38.34179688 C-0.03808827 25.56118825 -0.02120112 12.78059533 0 0 Z " fill="#F5F8F9" transform="translate(146,253)"/>
<path d="M0 0 C5.77645371 4.27313421 9.22478255 8.70199668 11.19140625 15.62109375 C11.45210266 18.78094482 11.45210266 18.78094482 11.46606445 22.20214844 C11.48036247 24.13510773 11.48036247 24.13510773 11.49494934 26.1071167 C11.4946878 27.502401 11.49375022 28.8976853 11.4921875 30.29296875 C11.4960804 31.74017458 11.50041629 33.18737927 11.50517273 34.63458252 C11.51261783 37.66397813 11.51235712 40.69325717 11.50708008 43.72265625 C11.50130201 47.58017786 11.51818404 51.43721672 11.54142475 55.29465866 C11.55625474 58.28378021 11.55702106 61.27278817 11.55391502 64.26194 C11.55442407 65.68272097 11.55958244 67.103509 11.56972694 68.52425385 C11.62113769 76.73403293 11.18840319 83.9221852 8.19140625 91.62109375 C7.53140625 91.62109375 6.87140625 91.62109375 6.19140625 91.62109375 C5.98515625 92.36359375 5.77890625 93.10609375 5.56640625 93.87109375 C3.76967343 97.46455938 1.63090458 98.62618472 -1.80859375 100.62109375 C-2.36160156 100.98203125 -2.91460937 101.34296875 -3.484375 101.71484375 C-6.97090595 103.07429783 -10.43362458 102.94952923 -14.12109375 102.93359375 C-14.85521484 102.94970703 -15.58933594 102.96582031 -16.34570312 102.98242188 C-22.46249149 102.98784937 -27.23796591 101.94894007 -31.91796875 97.7109375 C-32.459375 97.00066406 -33.00078125 96.29039062 -33.55859375 95.55859375 C-34.1103125 94.86636719 -34.66203125 94.17414063 -35.23046875 93.4609375 C-40.08715121 84.72131337 -40.26404179 75.80001056 -40.2421875 65.99609375 C-40.24676126 64.59944407 -40.25207033 63.20279662 -40.2580719 61.80615234 C-40.26695102 58.8947631 -40.26463913 55.98364894 -40.25463867 53.07226562 C-40.24314282 49.36714378 -40.26339527 45.66297423 -40.29255581 41.95797729 C-40.31102131 39.07863479 -40.3106052 36.19951634 -40.30491829 33.32012939 C-40.30469333 31.29851189 -40.32148533 29.27691506 -40.33872986 27.25537109 C-40.26714866 17.73026874 -39.05755089 9.90684359 -32.49609375 2.68359375 C-23.41839477 -5.40242383 -10.53063973 -6.12407879 0 0 Z " fill="#F5F7F9" transform="translate(246.80859375,255.37890625)"/>
<path d="M0 0 C12.87690263 -1.3901708 12.87690263 -1.3901708 17.83154297 2.29101562 C20.14641588 5.15607841 22.10054642 8.10111541 24.05029297 11.22460938 C34.39412466 24.77658435 46.33592133 36.16090996 60.05029297 46.22460938 C60.59685547 46.62663574 61.14341797 47.02866211 61.70654297 47.44287109 C69.7905228 53.33339126 78.20920616 58.56001399 87.05029297 63.22460938 C87.73269043 63.58554687 88.41508789 63.94648438 89.11816406 64.31835938 C107.50404527 73.88283675 127.44288924 80.67241301 148.05029297 83.22460938 C149.06953857 83.36274048 149.06953857 83.36274048 150.109375 83.50366211 C157.92389764 84.44483942 165.76532926 84.41070448 173.62402344 84.40991211 C176.01760163 84.41207977 178.41070326 84.4302384 180.80419922 84.44921875 C196.53163524 84.51000688 211.51002158 83.15849421 226.67529297 78.78710938 C227.76712891 78.48740234 228.85896484 78.18769531 229.98388672 77.87890625 C260.1406737 69.47365909 288.35544219 53.75760772 311.05029297 32.22460938 C312.29261201 31.17379406 313.54170111 30.13087848 314.80029297 29.09960938 C318.64219773 25.83125911 321.83099993 22.09574274 325.05029297 18.22460938 C325.79794922 17.33 326.54560547 16.43539063 327.31591797 15.51367188 C331.52741896 10.65585125 331.52741896 10.65585125 335.09106445 5.34204102 C336.27017928 3.30912876 337.28915072 1.78785514 339.05029297 0.22460938 C342.36265466 -0.62205643 345.47193649 -0.44299349 348.86279297 -0.21289062 C349.74644531 -0.18130859 350.63009766 -0.14972656 351.54052734 -0.1171875 C353.71188437 -0.03502804 355.8815231 0.09052449 358.05029297 0.22460938 C358.05029297 0.55460937 358.05029297 0.88460938 358.05029297 1.22460938 C357.30005859 1.28132813 356.54982422 1.33804687 355.77685547 1.39648438 C352.05674002 2.52637617 351.39109117 4.16652606 349.42529297 7.47460938 C344.91117229 14.64258928 339.61897837 20.8591994 334.05029297 27.22460938 C333.42123047 27.96582031 332.79216797 28.70703125 332.14404297 29.47070312 C309.57468716 55.92582067 279.00997668 74.82102907 246.33154297 86.08398438 C244.06600048 86.8715301 241.82735724 87.73938323 239.61669922 88.66992188 C233.15340104 91.10738489 226.25673059 92.09140741 219.48779297 93.34960938 C218.08988951 93.61592304 216.69210195 93.88284583 215.29443359 94.15039062 C203.46671293 96.39679934 192.20181154 97.46554759 180.17529297 97.47460938 C179.3743924 97.47528412 178.57349182 97.47595886 177.74832153 97.47665405 C156.92160782 97.44887091 136.99985972 95.41541041 117.05029297 89.22460938 C116.25977539 88.98307129 115.46925781 88.7415332 114.65478516 88.49267578 C106.48072064 85.96934898 98.59943415 83.32587738 91.04248047 79.25976562 C88.47174422 77.92399091 85.82857014 77.0288475 83.05029297 76.22460938 C83.05029297 75.56460938 83.05029297 74.90460938 83.05029297 74.22460938 C82.35677734 74.12921875 81.66326172 74.03382813 80.94873047 73.93554688 C64.33306702 69.86000678 48.66128534 54.14945235 36.05029297 43.22460938 C34.75881488 42.16188017 33.46718678 41.09933318 32.17529297 40.03710938 C29.11742385 37.40644256 26.52258518 34.47441418 23.91748047 31.40039062 C21.93810714 29.09388238 19.87245103 26.88543911 17.80029297 24.66210938 C13.92360678 20.37030308 10.41869934 15.87363167 6.98779297 11.22460938 C6.25351074 10.23545532 6.25351074 10.23545532 5.50439453 9.22631836 C2.05029297 4.47476526 2.05029297 4.47476526 2.05029297 2.22460938 C-2.23970703 2.22460938 -6.52970703 2.22460938 -10.94970703 2.22460938 C-10.94970703 1.89460938 -10.94970703 1.56460937 -10.94970703 1.22460938 C-7.30437072 0.69437864 -3.65690708 0.42128156 0 0 Z " fill="#3299CD" transform="translate(110.94970703125,389.775390625)"/>
<path d="M0 0 C1.83293189 2.18907151 3.55028454 4.45500244 5.28515625 6.72265625 C19.98241428 25.05779171 40.03085002 42.17260253 62 51 C62 51.66 62 52.32 62 53 C63.98 53.33 65.96 53.66 68 54 C68 54.66 68 55.32 68 56 C69.0725 56.226875 70.145 56.45375 71.25 56.6875 C74.90757454 57.58585164 78.18652449 58.90724012 81.625 60.4375 C87.27292588 62.87751881 92.83395648 64.2047041 98.87109375 65.32421875 C102 66 102 66 104.33203125 66.98046875 C125.82334444 75.1931082 157.89324286 73.18259108 180 68 C181.76145729 67.61988014 183.52319275 67.24104774 185.28515625 66.86328125 C195.19707416 64.68090499 204.70901993 62.15484277 214 58 C214.7518457 57.6690332 215.50369141 57.33806641 216.27832031 56.99707031 C234.68039143 48.83030129 251.52469156 39.10252501 266.40332031 25.45703125 C267.98740731 24.01149131 269.59492897 22.59718857 271.2109375 21.1875 C277.08015342 16.01528202 282.25617035 10.59102335 287.0625 4.41015625 C292.11241044 -1.87168798 292.11241044 -1.87168798 295.9453125 -2.42578125 C296.99460937 -2.38839844 298.04390625 -2.35101563 299.125 -2.3125 C300.70667969 -2.27576172 300.70667969 -2.27576172 302.3203125 -2.23828125 C305 -2 305 -2 307 -1 C305.63301811 7.3158065 296.70001322 14.56059874 291.22265625 20.5546875 C289.08951605 22.90151662 287.01367927 25.29034586 284.9375 27.6875 C281.23131774 31.84423776 277.32016413 35.49078818 273 39 C272.10023438 39.73734375 271.20046875 40.4746875 270.2734375 41.234375 C253.21104895 54.797894 234.18357301 66.25109487 213.421875 73.1484375 C210.85142443 74.01317046 210.85142443 74.01317046 207.87890625 75.41015625 C203.12764599 77.46848238 198.18549808 78.74652879 193.1875 80.0625 C192.27291016 80.31837891 191.35832031 80.57425781 190.41601562 80.83789062 C176.06635169 84.63260121 161.3795577 85.34069844 146.60302734 85.26074219 C144.2363972 85.2499379 141.87051503 85.26076881 139.50390625 85.2734375 C130.13396493 85.28182686 121.25114279 84.59013647 112 83 C110.65927706 82.8069359 109.31820885 82.61622656 107.9765625 82.4296875 C81.00316096 77.96555811 53.86289406 66.40988153 32 50 C31.11828125 49.34499512 31.11828125 49.34499512 30.21875 48.67675781 C21.67664395 42.28398556 13.72473215 35.35150204 6 28 C5.29488281 27.34773438 4.58976562 26.69546875 3.86328125 26.0234375 C-2.48856537 19.9679245 -7.69296195 12.9617365 -13 6 C-13.60199219 5.26265625 -14.20398438 4.5253125 -14.82421875 3.765625 C-16 2 -16 2 -16 -1 C-5.10280374 -3.99349858 -5.10280374 -3.99349858 0 0 Z " fill="#1B2D52" transform="translate(143,390)"/>
<path d="M0 0 C7.8130629 4.62405763 12.05680387 9.86776923 14.61542225 18.72699547 C15.35733687 22.18783938 15.20977015 25.69695436 15.20776367 29.22119141 C15.21112228 30.06712357 15.2144809 30.91305573 15.21794128 31.78462219 C15.22743253 34.57778393 15.22939314 37.37088565 15.23046875 40.1640625 C15.23368138 42.10411606 15.23704546 44.04416937 15.24055481 45.98422241 C15.24654063 50.04775556 15.24839515 54.11126744 15.24780273 58.17480469 C15.24770086 63.39169618 15.26138115 68.60845232 15.27857494 73.82531166 C15.28966759 77.82976921 15.29172283 81.83419367 15.29119301 85.83866501 C15.29237618 87.76286666 15.29681672 89.68706908 15.30452538 91.61125565 C15.31427499 94.29513444 15.31146785 96.97871451 15.30541992 99.66259766 C15.31103943 100.46263718 15.31665894 101.2626767 15.32244873 102.08695984 C15.29081906 107.58418094 15.29081906 107.58418094 13.0625 109.8125 C10.49609375 110.04296875 10.49609375 110.04296875 7.5 110 C6.50871094 109.99355469 5.51742187 109.98710937 4.49609375 109.98046875 C2.0625 109.8125 2.0625 109.8125 1.0625 108.8125 C0.97388008 106.0008662 0.94727645 103.21391745 0.96484375 100.40234375 C0.9662587 99.56030899 0.96767365 98.71827423 0.96913147 97.85072327 C0.97474737 95.15044665 0.98730252 92.45025172 1 89.75 C1.00501295 87.92382932 1.00957621 86.09765734 1.01367188 84.27148438 C1.02387284 79.78509915 1.04344501 75.29889145 1.0625 70.8125 C-5.8675 70.8125 -12.7975 70.8125 -19.9375 70.8125 C-19.91429688 73.74898438 -19.89109375 76.68546875 -19.8671875 79.7109375 C-19.85160111 82.54719612 -19.8394506 85.38345002 -19.82763672 88.21972656 C-19.81756373 90.19468309 -19.80390479 92.16962466 -19.78662109 94.14453125 C-19.76242961 96.97920418 -19.75103009 99.81368038 -19.7421875 102.6484375 C-19.73186493 103.53493988 -19.72154236 104.42144226 -19.71090698 105.33480835 C-19.7105093 107.49535952 -19.81477466 109.65543718 -19.9375 111.8125 C-22.50893865 114.38393865 -23.92700055 114.21583707 -27.5 114.5 C-28.49128906 114.58636719 -29.48257813 114.67273438 -30.50390625 114.76171875 C-31.30699219 114.77847656 -32.11007813 114.79523438 -32.9375 114.8125 C-35.04233231 112.70766769 -34.10551884 108.02955215 -34.11450195 105.12109375 C-34.12107315 104.20881516 -34.12764435 103.29653656 -34.13441467 102.35661316 C-34.15420997 99.32107469 -34.16582772 96.28558597 -34.17578125 93.25 C-34.17985678 92.21405701 -34.1839323 91.17811401 -34.18813133 90.11077881 C-34.20902451 84.62154335 -34.22330878 79.13233308 -34.23266602 73.64306641 C-34.24370158 67.98161767 -34.27805929 62.32056513 -34.31783772 56.65925598 C-34.34404256 52.30107921 -34.3523616 47.94299593 -34.35594749 43.58474731 C-34.36080809 41.49884382 -34.37240699 39.41294434 -34.39098549 37.32711792 C-34.41544537 34.39745263 -34.4143986 31.46879955 -34.4074707 28.5390625 C-34.42028076 27.68467087 -34.43309082 26.83027924 -34.44628906 25.94999695 C-34.36893285 16.923329 -30.85937128 9.96907433 -24.703125 3.4765625 C-18.33009586 -2.52987647 -8.10564346 -3.16626697 0 0 Z " fill="#F2F5F8" transform="translate(119.9375,254.1875)"/>
<path d="M0 0 C4.14422261 -0.09953791 8.28779575 -0.17177901 12.43286133 -0.21972656 C13.84021134 -0.23973246 15.24747938 -0.26694662 16.65454102 -0.30175781 C25.69468762 -0.51966989 31.69845591 -0.38633016 38.85546875 5.53515625 C46.34095408 14.11822008 47.4441498 23.25204007 47.3359375 34.203125 C46.82729076 39.95201609 45.37060909 44.81518967 42.5 49.8125 C42.0771875 50.56144531 41.654375 51.31039062 41.21875 52.08203125 C40 54 40 54 38 56 C37.88474991 57.92056133 37.88474991 57.92056133 38.21875 60.15234375 C38.32832031 61.05065918 38.43789063 61.94897461 38.55078125 62.87451172 C39.34725482 68.41606318 40.24597781 73.94009805 41.15591431 79.46386719 C43.09524989 91.29218019 44.80102311 102.98903109 45 115 C41.37 114.67 37.74 114.34 34 114 C30.28602434 103.36452424 28.46580078 92.90717677 26.9375 81.75 C26.59370183 79.26545117 26.2486977 76.78106884 25.90234375 74.296875 C25.75273193 73.20729492 25.60312012 72.11771484 25.44897461 70.99511719 C25.0474578 68.31659179 24.5311712 65.65585602 24 63 C20.04 62.67 16.08 62.34 12 62 C12.00523682 63.44882568 12.01047363 64.89765137 12.01586914 66.39038086 C12.03391273 71.74454129 12.04542965 77.09869901 12.05493164 82.45288086 C12.05997333 84.77417451 12.06680651 87.09546497 12.07543945 89.41674805 C12.08751225 92.74528795 12.09322979 96.07378602 12.09765625 99.40234375 C12.10281754 100.44712387 12.10797882 101.49190399 12.11329651 102.56834412 C12.11337204 103.52926468 12.11344757 104.49018524 12.11352539 105.48022461 C12.115746 106.33071884 12.11796661 107.18121307 12.12025452 108.05747986 C12 110 12 110 11 111 C9.33570949 111.09823937 7.66718069 111.12973631 6 111.125 C4.63875 111.12886719 4.63875 111.12886719 3.25 111.1328125 C1 111 1 111 0 110 C-0.09554399 108.57053529 -0.12188438 107.13637335 -0.12025452 105.70372009 C-0.12162918 104.77678848 -0.12300385 103.84985687 -0.12442017 102.89483643 C-0.12082489 101.86985046 -0.11722961 100.8448645 -0.11352539 99.78881836 C-0.11367142 98.71577957 -0.11381744 97.64274078 -0.1139679 96.53718567 C-0.11326824 92.97138484 -0.10547338 89.40563551 -0.09765625 85.83984375 C-0.09579226 83.37504607 -0.09436827 80.91024801 -0.09336853 78.44544983 C-0.08954187 71.94346095 -0.07971032 65.44149425 -0.06866455 58.93951416 C-0.05791748 52.31059183 -0.05387159 45.68166307 -0.04882812 39.05273438 C-0.03808819 26.03514676 -0.02120097 13.01757456 0 0 Z " fill="#F4F7F9" transform="translate(435,253)"/>
<path d="M0 0 C1.48396267 -0.02144362 2.96780364 -0.05538281 4.45117188 -0.10253906 C12.59307012 -0.35891215 19.44358942 -0.55963548 26.10058594 4.82568359 C27.99621303 6.64401273 29.74267922 8.36965372 31.24707031 10.5300293 C31.71113281 11.17198242 32.17519531 11.81393555 32.65332031 12.4753418 C37.05700486 20.24469953 35.67903704 33.49594876 34.07519531 41.9440918 C33.39785941 44.16140838 32.68400872 46.28576385 31.74707031 48.4050293 C31.08707031 48.4050293 30.42707031 48.4050293 29.74707031 48.4050293 C29.43769531 49.0444043 29.12832031 49.6837793 28.80957031 50.3425293 C27.74707031 52.4050293 27.74707031 52.4050293 26.74707031 53.4050293 C26.53263598 58.84927867 26.98413414 63.92383298 27.99707031 69.2800293 C28.19296753 70.36380859 28.19296753 70.36380859 28.39282227 71.46948242 C29.12061493 75.39947832 29.9352415 79.30032548 30.83691406 83.1940918 C31.01899414 83.98187012 31.20107422 84.76964844 31.38867188 85.58129883 C31.74123826 87.08207111 32.10321652 88.58067764 32.4765625 90.07641602 C33.71456131 95.29024922 33.90005872 100.04515968 33.74707031 105.4050293 C31.81079262 105.51310061 29.87279275 105.5906518 27.93457031 105.6550293 C26.855625 105.70143555 25.77667969 105.7478418 24.66503906 105.7956543 C21.74707031 105.4050293 21.74707031 105.4050293 20.14697266 103.79101562 C18.39272592 100.80108654 17.96244401 98.26336166 17.43066406 94.83862305 C17.22376953 93.54762695 17.016875 92.25663086 16.80371094 90.92651367 C16.596934 89.56524575 16.39055591 88.20391719 16.18457031 86.8425293 C15.9753643 85.50837505 15.76508722 84.17438829 15.55371094 82.84057617 C15.14341413 80.24631702 14.73499971 77.65175935 14.32861328 75.05688477 C13.79419999 71.7009847 13.24228191 68.3501114 12.65722656 65.00268555 C12.50519775 64.13264893 12.35316895 63.2626123 12.1965332 62.36621094 C11.9315368 60.41240292 11.9315368 60.41240292 10.74707031 59.4050293 C8.89815085 59.17139049 7.04219 58.99199295 5.18457031 58.8425293 C4.17265625 58.75874023 3.16074219 58.67495117 2.11816406 58.58862305 C0.94447266 58.49774414 0.94447266 58.49774414 -0.25292969 58.4050293 C-0.25070908 58.95404404 -0.24848846 59.50305878 -0.24620056 60.06871033 C-0.22414611 65.76210889 -0.20902243 71.45549539 -0.19799805 77.14892578 C-0.1929567 79.27620944 -0.18612378 81.40348961 -0.17749023 83.53076172 C-0.1654159 86.58130756 -0.15969955 89.63180775 -0.15527344 92.68237305 C-0.15011215 93.63965805 -0.14495087 94.59694305 -0.13963318 95.58323669 C-0.13955765 96.46407425 -0.13948212 97.3449118 -0.1394043 98.25244141 C-0.13718369 99.03187607 -0.13496307 99.81131073 -0.13267517 100.61436462 C-0.25292969 102.4050293 -0.25292969 102.4050293 -1.25292969 103.4050293 C-3.2509254 103.50376746 -5.25250127 103.53474729 -7.25292969 103.5300293 C-8.34605469 103.53260742 -9.43917969 103.53518555 -10.56542969 103.5378418 C-13.25292969 103.4050293 -13.25292969 103.4050293 -14.25292969 102.4050293 C-14.35361386 99.27479446 -14.38907129 96.16658009 -14.38232422 93.03588867 C-14.38407654 92.05223831 -14.38582886 91.06858795 -14.38763428 90.05513 C-14.39205474 86.78632877 -14.38911412 83.51758113 -14.38574219 80.2487793 C-14.38641517 77.98815907 -14.38738515 75.72753892 -14.38864136 73.46691895 C-14.39011859 68.72216098 -14.38796295 63.9774218 -14.38330078 59.23266602 C-14.37760348 53.13564305 -14.38088235 47.03866411 -14.38687325 40.94164276 C-14.39047816 36.27154201 -14.38934059 31.60145177 -14.38674545 26.93135071 C-14.38607599 24.68256119 -14.38690527 22.43377072 -14.38922501 20.1849823 C-14.3917504 17.04801892 -14.38791254 13.91112789 -14.38232422 10.77416992 C-14.38434845 9.83491165 -14.38637268 8.89565338 -14.38845825 7.92793274 C-14.35421051 -2.39268451 -8.743017 0.09478304 0 0 Z " fill="#F2F5F8" transform="translate(337.2529296875,252.594970703125)"/>
<path d="M0 0 C-0.61087459 4.81700066 -1.41440597 9.40123242 -3 14 C-6.13905453 16.03115293 -7.45931536 16.36092446 -11 17 C-13.55338643 17.74462194 -16.08964074 18.51136976 -18.625 19.3125 C-19.32512207 19.53043213 -20.02524414 19.74836426 -20.74658203 19.97290039 C-46.88131737 28.20471364 -70.0384571 43.55620223 -90.40869141 61.59228516 C-91.88343907 62.89688703 -93.36901208 64.1892239 -94.85546875 65.48046875 C-100.01547018 70.01596168 -104.64679672 74.69100359 -109 80 C-109.41975098 80.49677246 -109.83950195 80.99354492 -110.27197266 81.50537109 C-129.52741442 104.17932873 -129.52741442 104.17932873 -141 131 C-141.66 131 -142.32 131 -143 131 C-143.11730469 131.6909375 -143.23460937 132.381875 -143.35546875 133.09375 C-144.08011562 136.36124863 -145.14995422 139.36148632 -146.3125 142.5 C-148.41566763 148.28825673 -150.30864474 154.10458986 -152.0859375 160 C-153.31311184 164.0276491 -154.6483412 168.01260653 -156 172 C-160.29 172 -164.58 172 -169 172 C-166.13734978 127.6289216 -134.90033181 84.19676148 -104.16772461 54.15332031 C-103.5103833 53.50975586 -102.85304199 52.86619141 -102.17578125 52.203125 C-101.58708252 51.63239258 -100.99838379 51.06166016 -100.3918457 50.47363281 C-98.89518809 49.03123663 -98.89518809 49.03123663 -98 47 C-96.28673538 46.01157811 -94.57137542 45.02637293 -92.83984375 44.0703125 C-89.55548343 42.15966552 -86.78549847 39.83459212 -84.1875 37.07421875 C-81.8263962 34.83538639 -79.52382503 33.40131277 -76.6875 31.8125 C-75.10775391 30.9153125 -75.10775391 30.9153125 -73.49609375 30 C-72.9326123 29.6803125 -72.36913086 29.360625 -71.78857422 29.03125 C-69.23609273 27.55954896 -66.72110342 26.028295 -64.203125 24.49853516 C-48.56123919 15 -48.56123919 15 -45 15 C-45 14.34 -45 13.68 -45 13 C-44.154375 12.74605469 -43.30875 12.49210937 -42.4375 12.23046875 C-36.99683231 10.57972071 -31.6045273 8.91399022 -26.3046875 6.85546875 C-22.97832564 5.62076833 -19.61504353 4.49868848 -16.25 3.375 C-15.59918457 3.15658447 -14.94836914 2.93816895 -14.27783203 2.71313477 C-9.29609637 1.05749713 -5.26261703 -0.14618381 0 0 Z " fill="#D5E8F2" transform="translate(239,56)"/>
<path d="M0 0 C13.23511773 1.65796291 25.76354458 6.88894982 38 12 C38 12.66 38 13.32 38 14 C38.81855469 14.23976563 39.63710938 14.47953125 40.48046875 14.7265625 C44.67437444 16.24400229 48.42369844 18.20732582 52.3125 20.375 C53.09214111 20.8083667 53.87178223 21.2417334 54.67504883 21.68823242 C62.53197702 26.15068938 69.85408259 31.28757773 77.12890625 36.63330078 C79.01314524 38.00960165 80.91666401 39.35548553 82.82421875 40.69921875 C85.89843985 42.92642198 88.39030166 45.25294911 91 48 C94.0876733 51.128764 97.23433005 54.18709538 100.40625 57.23046875 C111.25515359 67.73301736 120.77220924 78.32987438 129 91 C129.4120166 91.63083496 129.8240332 92.26166992 130.24853516 92.91162109 C133.83431969 98.45166564 137.23723758 104.07986764 140.0703125 110.046875 C140.76607064 111.50855176 141.4957839 112.95415015 142.2421875 114.390625 C144.68925341 119.11100067 146.63047093 123.68738922 148.19921875 128.76171875 C149.03778253 131.10560678 150.1107574 133.1341031 151.3125 135.3125 C153.92607541 140.38028647 155.63789808 145.62962357 157.3125 151.0625 C157.57909424 151.90143799 157.84568848 152.74037598 158.12036133 153.60473633 C159.80428117 159.2552475 160.25518954 164.10690198 160 170 C155.71 170 151.42 170 147 170 C145.72170987 166.16512961 144.70522086 162.81381287 143.875 158.9375 C138.12628497 135.85726291 127.10753569 113.10959362 113 94 C112.56719727 93.4131543 112.13439453 92.82630859 111.68847656 92.22167969 C105.02221882 83.28626482 97.69793238 75.05339246 90 67 C89.36449219 66.32324219 88.72898437 65.64648438 88.07421875 64.94921875 C83.12791029 59.81402977 77.6074367 55.38934184 72 51 C71.44812012 50.5663916 70.89624023 50.1327832 70.32763672 49.68603516 C61.07365732 42.47578372 51.41077874 36.59254987 41.05273438 31.10498047 C39.23897742 30.1286408 37.45294091 29.10118046 35.671875 28.06640625 C26.9044166 23.01949751 17.66815772 19.86851118 8.08374023 16.75854492 C5.91493979 15.96903549 3.96220921 15.22312206 2 14 C1.171875 10.7421875 1.171875 10.7421875 0.75 6.875 C0.60046875 5.59367187 0.4509375 4.31234375 0.296875 2.9921875 C0.19890625 2.00476562 0.1009375 1.01734375 0 0 Z " fill="#D5E8F3" transform="translate(346,58)"/>
<path d="M0 0 C4.08888118 -0.17501796 8.17626986 -0.30096671 12.26806641 -0.38452148 C13.65517208 -0.41940004 15.0420267 -0.46692532 16.42822266 -0.52807617 C25.00742163 -0.89664104 31.18829595 -0.3881274 38.11767578 5.13623047 C44.15954489 11.11854289 46.23223179 18.72413511 46.38037109 27.03051758 C46.35684439 38.39498302 45.78958524 48.68799791 37.7578125 57.5 C32.06897369 62.35447578 28.40732284 63.57091592 21.125 63.25 C20.34125 63.23195313 19.5575 63.21390625 18.75 63.1953125 C16.83279811 63.14855148 14.91623285 63.07682003 13 63 C13.00523682 64.26183105 13.01047363 65.52366211 13.01586914 66.82373047 C13.03393458 71.49397068 13.04543769 76.16420779 13.05493164 80.83447266 C13.05996831 82.85791543 13.06679789 84.88135456 13.07543945 86.90478516 C13.08753412 89.80892843 13.09323488 92.71302369 13.09765625 95.6171875 C13.10281754 96.52556366 13.10797882 97.43393982 13.11329651 98.36984253 C13.11337204 99.21056305 13.11344757 100.05128357 13.11352539 100.91748047 C13.115746 101.65916473 13.11796661 102.400849 13.12025452 103.16500854 C13 105 13 105 12 107 C10.18757948 107.02687279 8.37504767 107.04633715 6.5625 107.0625 C5.55316406 107.07410156 4.54382813 107.08570313 3.50390625 107.09765625 C1 107 1 107 0 106 C-0.0953919 104.62123975 -0.12188622 103.23763084 -0.12025452 101.85557556 C-0.12162918 100.96230057 -0.12300385 100.06902557 -0.12442017 99.14868164 C-0.12082489 98.16109863 -0.11722961 97.17351562 -0.11352539 96.15600586 C-0.11367142 95.12198135 -0.11381744 94.08795685 -0.1139679 93.02259827 C-0.11326827 89.58665914 -0.10547358 86.15077347 -0.09765625 82.71484375 C-0.09579225 80.33972707 -0.09436826 77.96461 -0.09336853 75.5894928 C-0.08954197 69.32423856 -0.0797105 63.05900733 -0.06866455 56.79376221 C-0.0584534 50.4061311 -0.05387155 44.01849629 -0.04882812 37.63085938 C-0.03808836 25.08722974 -0.02120127 12.54361609 0 0 Z " fill="#F5F8F9" transform="translate(381,253)"/>
<path d="M0 0 C1.50046875 0.00386719 1.50046875 0.00386719 3.03125 0.0078125 C4.0315625 0.00523437 5.031875 0.00265625 6.0625 0 C8.53125 0.1328125 8.53125 0.1328125 9.53125 1.1328125 C9.65609154 3.47434091 9.71724291 5.78788835 9.73657227 8.13110352 C9.74647186 8.86276733 9.75637146 9.59443115 9.76657104 10.3482666 C9.79827383 12.77771722 9.82297793 15.20718743 9.84765625 17.63671875 C9.86821822 19.31681337 9.88921448 20.99690273 9.91062927 22.67698669 C9.96592826 27.10749053 10.01530287 31.53804165 10.06347656 35.96862793 C10.1136346 40.48628975 10.16935033 45.00388258 10.22460938 49.52148438 C10.3322866 58.3918682 10.43371018 67.26231182 10.53125 76.1328125 C11.19125 76.1328125 11.85125 76.1328125 12.53125 76.1328125 C13.19125 77.1228125 13.85125 78.1128125 14.53125 79.1328125 C16.73850073 79.49644068 16.73850073 79.49644068 19.15625 79.3203125 C20.38214844 79.27970703 20.38214844 79.27970703 21.6328125 79.23828125 C22.57253906 79.18607422 22.57253906 79.18607422 23.53125 79.1328125 C25.63311398 73.94821467 26.66584676 69.99418428 26.73657227 64.36645508 C26.75142166 63.34167305 26.75142166 63.34167305 26.76657104 62.29618835 C26.79813679 60.03994197 26.8229239 57.78367453 26.84765625 55.52734375 C26.86823004 53.96220861 26.88922662 52.39707898 26.91062927 50.83195496 C26.96580609 46.71384134 27.01523471 42.59567794 27.06347656 38.47747803 C27.11372365 34.27465386 27.16939297 30.07190192 27.22460938 25.86914062 C27.33213726 17.623759 27.43359413 9.37831692 27.53125 1.1328125 C30.05600462 -0.12956481 31.84325466 0.03424846 34.65625 0.0703125 C35.56632812 0.07933594 36.47640625 0.08835938 37.4140625 0.09765625 C38.46207031 0.11505859 38.46207031 0.11505859 39.53125 0.1328125 C39.60089379 10.55569196 39.6541342 20.97851567 39.68668652 31.40158081 C39.70231342 36.24192551 39.7234972 41.08211049 39.75756836 45.92236328 C39.7902681 50.5972754 39.80812538 55.2720343 39.81588173 59.947052 C39.82140622 61.72675995 39.83219413 63.50645993 39.84844017 65.28610229 C39.87035585 67.78727049 39.87321108 70.28781308 39.87182617 72.7890625 C39.882612 73.51771011 39.89339783 74.24635773 39.9045105 74.99708557 C39.86142978 82.23164828 37.35776491 88.18027401 33.65625 94.3828125 C33.18445313 95.19234375 32.71265625 96.001875 32.2265625 96.8359375 C29.36828721 100.70843951 27.03781285 102.8585682 22.2265625 103.734375 C11.39557073 103.8054756 11.39557073 103.8054756 7.46875 100.6328125 C5.91796875 98.9609375 5.91796875 98.9609375 4.53125 97.1328125 C4.06332031 96.52953125 3.59539062 95.92625 3.11328125 95.3046875 C-4.14597324 84.83092442 -3.8917065 73.36006004 -3.796875 61.12890625 C-3.79381256 59.39681666 -3.79194013 57.66472459 -3.79119873 55.93263245 C-3.78662136 52.32437541 -3.7722856 48.71634476 -3.75 45.1081543 C-3.72152798 40.47428172 -3.71076662 35.84058534 -3.7063179 31.20663357 C-3.70217396 27.6405714 -3.69236823 24.07454502 -3.68044281 20.50850105 C-3.67473524 18.79839425 -3.66997815 17.08828402 -3.66617584 15.37817192 C-3.65933991 13.00131957 -3.64572552 10.62460992 -3.62988281 8.24780273 C-3.62876495 7.53775085 -3.62764709 6.82769897 -3.62649536 6.09613037 C-3.57408486 0.19227672 -3.57408486 0.19227672 0 0 Z " fill="#F4F7F9" transform="translate(272.46875,252.8671875)"/>
<path d="M0 0 C0.46221013 3.76371108 0.77808168 6.50486265 -0.99609375 9.9140625 C-5.16323753 14.82804503 -10.06461738 16.14174181 -16.12158203 17.82080078 C-37.4446186 23.99187073 -57.42952867 37.47756445 -74 52 C-74.81339844 52.70382813 -75.62679687 53.40765625 -76.46484375 54.1328125 C-79.01648182 56.38212378 -81.5154441 58.67682764 -84 61 C-84.93585938 61.87011719 -85.87171875 62.74023438 -86.8359375 63.63671875 C-98.84519637 75.06786441 -108.95441419 88.51355903 -117 103 C-117.65379639 104.1763501 -117.65379639 104.1763501 -118.32080078 105.37646484 C-124.16776167 116.00060196 -129.41263495 126.39088811 -133 138 C-133.54038561 139.69311774 -134.08215347 141.38579468 -134.625 143.078125 C-136.10532061 147.71206101 -137.55859475 152.35382089 -139 157 C-143.29 157 -147.58 157 -152 157 C-148.60210504 142.92042461 -144.84746884 129.3005951 -139 116 C-138.34 116 -137.68 116 -137 116 C-136.92394531 115.18144531 -136.84789062 114.36289063 -136.76953125 113.51953125 C-135.79522587 109.0634442 -133.92987682 105.6291011 -131.6875 101.6875 C-131.24672119 100.9049585 -130.80594238 100.12241699 -130.35180664 99.31616211 C-118.62362484 78.91211463 -103.30427783 58.94041221 -85 44 C-83.83801483 43.01494404 -82.67661572 42.02919658 -81.515625 41.04296875 C-73.03476495 33.91440504 -64.33503487 27.68904185 -54.79296875 22.06396484 C-53.19184261 21.11384124 -51.61006247 20.13128905 -50.03125 19.14453125 C-36.04347812 10.5593398 -16.84041706 0 0 0 Z " fill="#30B3E0" transform="translate(235,71)"/>
<path d="M0 0 C15.32593323 2.90664251 28.52924169 9.40758833 42 17 C42.77456543 17.43618652 43.54913086 17.87237305 44.34716797 18.32177734 C60.564982 27.5729049 74.51117971 39.15831952 88 52 C88.72574219 52.68449219 89.45148438 53.36898437 90.19921875 54.07421875 C95.62046315 59.32505075 100.3632479 65.05237291 105 71 C105.43747559 71.56106445 105.87495117 72.12212891 106.32568359 72.70019531 C124.63220908 96.37568045 138.41674743 124.53283364 144 154 C148.29 154.33 152.58 154.66 157 155 C157.33 154.01 157.66 153.02 158 152 C158 153.32 158 154.64 158 156 C149.09 156 140.18 156 131 156 C130.175 152.9475 129.35 149.895 128.5 146.75 C120.2093293 117.27616872 106.23679405 91.89476102 86 69 C85.23945313 68.10539062 84.47890625 67.21078125 83.6953125 66.2890625 C78.3301917 60.08385161 72.43557447 55.06003183 66 50 C64.8283416 49.03152708 63.65918492 48.0600218 62.4921875 47.0859375 C52.36475253 38.69471056 41.83625767 31.78301174 30 26 C30 25.34 30 24.68 30 24 C29.28457031 23.88398437 28.56914062 23.76796875 27.83203125 23.6484375 C24.85907302 22.96773258 22.43625798 21.93772089 19.6875 20.625 C16.37524385 19.05345911 13.20024124 17.72105656 9.6875 16.6875 C4.93610697 14.95348646 2.19853084 11.46220333 0 7 C-0.45309707 4.43566338 -0.32726718 2.61813741 0 0 Z " fill="#30B2E0" transform="translate(349,73)"/>
<path d="M0 0 C1.50046875 0.00386719 1.50046875 0.00386719 3.03125 0.0078125 C4.0315625 0.00523437 5.031875 0.00265625 6.0625 0 C8.53125 0.1328125 8.53125 0.1328125 9.53125 1.1328125 C9.62659958 4.26841136 9.65675879 7.38194863 9.64477539 10.51782227 C9.64492142 11.50307892 9.64506744 12.48833557 9.6452179 13.50344849 C9.64451832 16.77706057 9.63672385 20.05061654 9.62890625 23.32421875 C9.62704223 25.58723418 9.62561825 27.85025001 9.62461853 30.11326599 C9.6207921 36.08260198 9.61096075 42.05191382 9.59991455 48.02124023 C9.58970312 54.10725579 9.58512149 60.19327523 9.58007812 66.27929688 C9.56933859 78.23047939 9.55226068 90.18164394 9.53125 102.1328125 C10.55519363 101.9196489 10.55519363 101.9196489 11.599823 101.70217896 C12.4974234 101.51831635 13.3950238 101.33445374 14.31982422 101.14501953 C15.20870331 100.96166046 16.0975824 100.77830139 17.01339722 100.58938599 C19.93080064 100.0603602 22.69439172 99.93186742 25.65625 100.0078125 C26.58695313 100.02585937 27.51765625 100.04390625 28.4765625 100.0625 C29.15460938 100.08570313 29.83265625 100.10890625 30.53125 100.1328125 C30.55815104 102.92454305 30.57804053 105.71601598 30.59375 108.5078125 C30.60212891 109.301875 30.61050781 110.0959375 30.61914062 110.9140625 C30.64453125 116.90625 30.64453125 116.90625 29.53125 119.1328125 C27.1262207 119.81884766 27.1262207 119.81884766 23.95703125 120.421875 C22.81427734 120.64101563 21.67152344 120.86015625 20.49414062 121.0859375 C19.28951172 121.30765625 18.08488281 121.529375 16.84375 121.7578125 C15.65845703 121.98726563 14.47316406 122.21671875 13.25195312 122.453125 C7.94637359 123.45294257 2.9528724 124.38935771 -2.46875 124.1328125 C-4.10517482 122.49638768 -3.59478528 120.64510982 -3.59573364 118.38769531 C-3.59855347 117.36123901 -3.60137329 116.33478271 -3.60427856 115.27722168 C-3.60225433 114.1415979 -3.6002301 113.00597412 -3.59814453 111.8359375 C-3.60077301 110.05322449 -3.60077301 110.05322449 -3.60345459 108.23449707 C-3.6071127 104.96598474 -3.60623972 101.69751261 -3.6030755 98.42900085 C-3.60055147 95.01549187 -3.60288956 91.60198565 -3.60446167 88.18847656 C-3.60628324 82.45507319 -3.60387739 76.72168267 -3.59912109 70.98828125 C-3.59367849 64.35075474 -3.59544116 57.71325895 -3.6009475 51.07573318 C-3.60547899 45.38656984 -3.606129 39.69741576 -3.60350883 34.00825119 C-3.60194626 30.6061223 -3.60175175 27.20400786 -3.60504532 23.80187988 C-3.60757009 20.01112762 -3.60373371 16.22043527 -3.59814453 12.4296875 C-3.60016876 11.29406372 -3.60219299 10.15843994 -3.60427856 8.98840332 C-3.60145874 7.96194702 -3.59863892 6.93549072 -3.59573364 5.87792969 C-3.59535662 4.98048035 -3.59497959 4.08303101 -3.59459114 3.15838623 C-3.40733132 0.14420043 -3.03027743 0.16302125 0 0 Z " fill="#F6F8FA" transform="translate(43.46875,252.8671875)"/>
<path d="M0 0 C4.51928969 1.06728613 6.63833246 3.78171744 9.1171875 7.5 C9.36442566 10.27026367 9.36442566 10.27026367 9.36010742 13.66796875 C9.36318405 14.93938721 9.36626068 16.21080566 9.36943054 17.52075195 C9.36253236 18.9096698 9.35526536 20.29858586 9.34765625 21.6875 C9.34646395 23.1109208 9.34601139 24.5343424 9.3462677 25.95776367 C9.34470379 28.94031707 9.33642148 31.92275027 9.32299805 34.90527344 C9.30600836 38.72866553 9.30218379 42.55192554 9.30294323 46.37535095 C9.30267131 49.31442526 9.29718663 52.2534707 9.28994179 55.1925354 C9.28675933 56.60234356 9.2847887 58.01215499 9.28404808 59.42196655 C9.28188007 61.39200008 9.27233649 63.36202133 9.26245117 65.33203125 C9.25673347 67.01389526 9.25673347 67.01389526 9.25090027 68.72973633 C9.07619517 72.34927978 8.55747689 74.03302641 6.0546875 76.6875 C2.26142579 79.02802318 -0.53248045 79.35594768 -4.8828125 78.5 C-8.73830262 76.35806104 -10.59795337 73.87407336 -12.2585144 69.80932617 C-13.65227499 64.65369969 -13.37260139 59.24170821 -13.38671875 53.9375 C-13.39670395 52.63224365 -13.40668915 51.3269873 -13.41697693 49.98217773 C-13.43486541 47.22860259 -13.44050523 44.47530877 -13.4387207 41.72167969 C-13.43841546 38.2074787 -13.47943971 34.69509115 -13.53103733 31.18132019 C-13.57256093 27.80835472 -13.57066616 24.43571745 -13.57421875 21.0625 C-13.5957753 19.80816162 -13.61733185 18.55382324 -13.63954163 17.26147461 C-13.58754956 10.62509719 -13.23642597 6.41913669 -8.40332031 1.63493347 C-5.53408485 -0.50671377 -3.41546503 -0.27599717 0 0 Z " fill="#134D87" transform="translate(515.8828125,272.5)"/>
<path d="M0 0 C3.68781556 0.82448563 6.16909504 2.31883164 9.25390625 4.50390625 C10.50963136 7.01535647 10.40818639 8.78176842 10.44677734 11.59277344 C10.47087173 13.18517853 10.47087173 13.18517853 10.49545288 14.80975342 C10.53986988 19.67199104 10.58097414 24.53409131 10.60400391 29.39648438 C10.62055983 31.96102983 10.64784463 34.52552922 10.68603516 37.08984375 C10.74080178 40.78540007 10.76267969 44.47987374 10.77734375 48.17578125 C10.80001312 49.31972351 10.8226825 50.46366577 10.84603882 51.64227295 C10.82247185 60.52493923 10.82247185 60.52493923 7.84619141 64.21191406 C3.75052738 67.83313217 0.9937754 67.83901319 -4.33203125 67.79296875 C-6.74609375 67.50390625 -6.74609375 67.50390625 -9.24609375 65.69140625 C-11.83177233 61.92062499 -13.00000792 59.98277923 -13.06835938 55.40917969 C-13.09718201 53.85176056 -13.09718201 53.85176056 -13.12658691 52.26287842 C-13.13508667 51.14101135 -13.14358643 50.01914429 -13.15234375 48.86328125 C-13.1637439 47.70773743 -13.17514404 46.5521936 -13.18688965 45.3616333 C-13.20579491 42.91381495 -13.21885972 40.46594564 -13.2265625 38.01806641 C-13.24594815 34.28196719 -13.30797106 30.54808122 -13.37109375 26.8125 C-13.38415689 24.43360681 -13.39465663 22.05469789 -13.40234375 19.67578125 C-13.42703735 18.56201111 -13.45173096 17.44824097 -13.47717285 16.30072021 C-13.44148884 10.05302459 -12.80950845 6.29665282 -8.46887207 1.67437744 C-5.73242335 -0.1847906 -3.23250398 -0.25706884 0 0 Z " fill="#124B85" transform="translate(233.74609375,271.49609375)"/>
<path d="M0 0 C5.64323537 2.49862473 8.82877817 6.8667031 11.75 12.1875 C14.82811591 20.26302762 15.28161367 29.45498362 16 38 C17.65 38.33 19.3 38.66 21 39 C21 39.66 21 40.32 21 41 C22.98 41.495 22.98 41.495 25 42 C25 43.32 25 44.64 25 46 C16.38422056 49.42708415 7.91471983 49.4236545 -1.20703125 49.36328125 C-2.77910868 49.36276079 -4.35118676 49.36328565 -5.92326355 49.36479187 C-9.21220682 49.36470254 -12.50090303 49.35436676 -15.78979492 49.33618164 C-19.94040456 49.31369959 -24.09065096 49.31308524 -28.2413044 49.31945992 C-45.25603596 49.33892865 -62.09589769 49.19385385 -79 47 C-79.495 45.515 -79.495 45.515 -80 44 C-72.08 43.67 -64.16 43.34 -56 43 C-60.62 42.01 -65.24 41.02 -70 40 C-70 39.34 -70 38.68 -70 38 C-56.66019315 37.91172187 -43.33560687 38.19097894 -30 38.5 C-27.85677452 38.54834099 -25.71354537 38.59651918 -23.5703125 38.64453125 C-18.3801641 38.76114768 -13.19007017 38.87995409 -8 39 C-8 38.34 -8 37.68 -8 37 C-6.95199219 36.60167969 -6.95199219 36.60167969 -5.8828125 36.1953125 C-4.97273438 35.84210938 -4.06265625 35.48890625 -3.125 35.125 C-2.22007812 34.77695313 -1.31515625 34.42890625 -0.3828125 34.0703125 C2.12217007 33.11469105 2.12217007 33.11469105 4 31 C5.13369082 21.06353341 4.07652875 9.16362555 0 0 Z " fill="#E8F0F4" transform="translate(317,46)"/>
<path d="M0 0 C0.73605469 -0.0515625 1.47210938 -0.103125 2.23046875 -0.15625 C6.50916632 0.93122533 9.36433903 2.78125317 11.8125 6.5 C12.66848013 10.9889408 12.47423649 15.32620264 12.25 19.875 C12.21841797 21.08800781 12.18683594 22.30101562 12.15429688 23.55078125 C12.07205749 26.53489607 11.94650929 29.51776156 11.8125 32.5 C4.8825 32.5 -2.0475 32.5 -9.1875 32.5 C-9.26845816 28.43709992 -9.32798645 24.37581433 -9.375 20.3125 C-9.41270508 18.58676758 -9.41270508 18.58676758 -9.45117188 16.82617188 C-9.46083984 15.71435547 -9.47050781 14.60253906 -9.48046875 13.45703125 C-9.4961792 12.43585205 -9.51188965 11.41467285 -9.52807617 10.36254883 C-8.84834292 4.64937864 -5.92324709 0.24467802 0 0 Z " fill="#12528A" transform="translate(109.1875,273.5)"/>
<path d="M0 0 C2.866875 -0.0825 5.73375 -0.165 8.6875 -0.25 C9.58170654 -0.28641602 10.47591309 -0.32283203 11.3972168 -0.36035156 C15.18814648 -0.41306831 17.5890573 -0.20098738 21.04296875 1.48828125 C23.78042349 5.00162136 23.73445402 8.16514482 23.625 12.4375 C23.65400391 13.56381836 23.65400391 13.56381836 23.68359375 14.71289062 C23.64623432 18.9606574 23.35645738 20.56106138 20.5859375 23.97265625 C16.41273987 27.24439276 13.01376539 27.29142531 7.875 27.5625 C5.27625 27.706875 2.6775 27.85125 0 28 C0 18.76 0 9.52 0 0 Z " fill="#15467F" transform="translate(160,314)"/>
<path d="M0 0 C2.866875 -0.0825 5.73375 -0.165 8.6875 -0.25 C9.58170654 -0.28641602 10.47591309 -0.32283203 11.3972168 -0.36035156 C15.26783642 -0.41417648 17.56087751 -0.23310744 21.0390625 1.61328125 C23.5700274 4.6937983 23.70122791 6.47928505 23.6875 10.4375 C23.71199219 11.54996094 23.73648438 12.66242188 23.76171875 13.80859375 C22.92712891 17.30531118 21.77880116 18.96107963 18.86938477 21.09545898 C15.37579762 22.78590438 11.92151581 22.51998998 8.125 22.3125 C4.103125 22.1578125 4.103125 22.1578125 0 22 C0 14.74 0 7.48 0 0 Z " fill="#10548D" transform="translate(160,273)"/>
<path d="M0 0 C3.3224697 1.57895671 6.39022198 3.44382959 9.5 5.40625 C10.551875 6.06753906 11.60375 6.72882813 12.6875 7.41015625 C16 9.5 16 9.5 19.3125 11.58984375 C20.364375 12.25113281 21.41625 12.91242188 22.5 13.59375 C23.4590625 14.19896484 24.418125 14.80417969 25.40625 15.42773438 C27.56825616 16.73828781 29.71857316 17.91578418 32 19 C31.38394021 23.00438862 29.24558699 25.70179411 27 29 C26.505 30.485 26.505 30.485 26 32 C21.67047749 31.50848416 19.00103156 28.70683626 15.875 25.9375 C14.7170856 24.93381064 13.55822143 23.931216 12.3984375 22.9296875 C11.82577148 22.43307617 11.25310547 21.93646484 10.66308594 21.42480469 C6.86629318 18.17200337 2.92151155 15.09992726 -1 12 C-2.66735185 10.66752359 -4.33419205 9.33440602 -6 8 C-4.55746343 4.63408134 -2.66735273 2.48952921 0 0 Z " fill="#E0EAEF" transform="translate(267,156)"/>
<path d="M0 0 C13 0 13 0 17.3125 2.25 C20.18540367 5.25154115 20.51475589 7.91510991 20.6875 12 C20.30898756 18.49108574 18.54778182 21.45221818 14 26 C9.32380812 26.28034724 4.68783389 26.08523334 0 26 C0 17.42 0 8.84 0 0 Z " fill="#165A93" transform="translate(394,271)"/>
<path d="M0 0 C2.536875 -0.061875 5.07375 -0.12375 7.6875 -0.1875 C8.47729248 -0.21481201 9.26708496 -0.24212402 10.08081055 -0.27026367 C14.60318145 -0.32344113 17.43303549 0.18325747 21 3 C23.13845911 7.27691823 22.68035887 12.375968 22 17 C20.36363591 20.35917761 18.4985876 21.74821178 15 23 C9.82457081 23.47822241 5.2598563 23.27928441 0 23 C0 15.41 0 7.82 0 0 Z " fill="#145891" transform="translate(337,271)"/>
<path d="M0 0 C3.5578125 -0.12375 3.5578125 -0.12375 7.1875 -0.25 C7.92508545 -0.28641602 8.6626709 -0.32283203 9.42260742 -0.36035156 C12.80408141 -0.41697584 14.95195931 -0.02526113 17.94921875 1.55078125 C20.76032151 4.90804112 20.66797116 7.10170953 20.625 11.4375 C20.63789063 12.73558594 20.65078125 14.03367187 20.6640625 15.37109375 C19.83414145 19.90636819 18.77561372 21.37957406 15 24 C12.11628549 24.37353815 10.01710038 24.48712853 7.1875 24.3125 C4.815625 24.209375 2.44375 24.10625 0 24 C0 16.08 0 8.16 0 0 Z " fill="#0D558F" transform="translate(448,272)"/>
<path d="M0 0 C3.21043882 1.38188453 5.04936365 2.92421903 7.25 5.625 C8.03117187 6.57246094 8.03117187 6.57246094 8.828125 7.5390625 C9.40820312 8.26222656 9.40820312 8.26222656 10 9 C9.01 9.66 8.02 10.32 7 11 C6.67 11.99 6.34 12.98 6 14 C12.93 14.495 12.93 14.495 20 15 C20 15.66 20 16.32 20 17 C18.2984375 17.4640625 18.2984375 17.4640625 16.5625 17.9375 C13.21224901 18.62924531 13.21224901 18.62924531 12 20 C11.95936168 21.66617115 11.957279 23.33388095 12 25 C12.66 25.33 13.32 25.66 14 26 C14 28.64 14 31.28 14 34 C10.49979578 33.6999825 9.05095809 33.04266259 6.3125 30.75 C-0.58514751 22.54739215 -0.36177698 10.21015044 0 0 Z " fill="#E1EBF1" transform="translate(259,116)"/>
<path d="M0 0 C0.99 0.495 1.98 0.99 3 1.5 C3 1.83 3 2.16 3 2.5 C1.948125 2.61214844 1.948125 2.61214844 0.875 2.7265625 C-7.96246853 3.95132037 -12.61038514 7.03334844 -18.75 13.3125 C-23.54156411 20.10054916 -25.47579581 26.24378405 -26 34.5 C-26.99 34.17 -27.98 33.84 -29 33.5 C-29.52386854 23.40097866 -29.58855873 14.98101236 -22.87109375 6.95703125 C-16.05063292 -0.11062915 -9.77148352 -4.18211566 0 0 Z " fill="#E7EAEC" transform="translate(308,33.5)"/>
<path d="M0 0 C0 0.66 0 1.32 0 2 C-1.299375 2.8353125 -1.299375 2.8353125 -2.625 3.6875 C-15.34082268 11.93640605 -19.84697601 28.01702406 -23 42 C-23.66 42 -24.32 42 -25 42 C-25.53895271 28.25670594 -25.15574018 18.0564794 -16.06640625 6.984375 C-11.50571585 2.6047328 -6.31665389 0 0 0 Z " fill="#EAEDEE" transform="translate(283,32)"/>
<path d="M0 0 C1.32 0 2.64 0 4 0 C4.90993807 2.47824311 5.81339626 4.95863929 6.7109375 7.44140625 C7.395824 9.33210808 8.08205974 11.2223438 8.77832031 13.10888672 C9.60959985 15.36162467 10.43029946 17.61802632 11.25 19.875 C11.52021973 20.60001709 11.79043945 21.32503418 12.06884766 22.07202148 C13.42187902 25.82787994 14.34560016 28.99418002 14 33 C12.35 33 10.7 33 9 33 C5.1286599 24.15357602 1.87868521 15.21179267 -1 6 C-1.37898437 4.8553125 -1.37898437 4.8553125 -1.765625 3.6875 C-1.84296875 3.130625 -1.9203125 2.57375 -2 2 C-1.34 1.34 -0.68 0.68 0 0 Z " fill="#DCE9F1" transform="translate(238,174)"/>
<path d="M0 0 C2.46800047 1.15173355 4.04783565 2.04783565 6 4 C5.84200002 8.22882302 2.83206744 10.64193749 0.0625 13.5625 C-2.53959147 16.32184016 -4.89514078 18.84271117 -7 22 C-7.66 22 -8.32 22 -9 22 C-12.11278433 17.84962089 -12.11278433 17.84962089 -11.73852539 15.03027344 C-10.93948466 12.83363783 -10.02522121 11.52324278 -8.49609375 9.765625 C-7.75649414 8.90517578 -7.75649414 8.90517578 -7.00195312 8.02734375 C-6.48568359 7.44082031 -5.96941406 6.85429687 -5.4375 6.25 C-4.91736328 5.64800781 -4.39722656 5.04601562 -3.86132812 4.42578125 C-2.58043726 2.94511841 -1.29103688 1.47182458 0 0 Z " fill="#DAE5EB" transform="translate(318,161)"/>
<path d="M0 0 C4.75 0.75 4.75 0.75 7 3 C8.66159165 12.7971206 8.10683465 23.0881188 8 33 C6.35 33 4.7 33 3 33 C2.92652344 31.09927734 2.92652344 31.09927734 2.8515625 29.16015625 C2.77645809 27.46091904 2.70091368 25.76170124 2.625 24.0625 C2.5940625 23.23169922 2.563125 22.40089844 2.53125 21.54492188 C2.29581965 16.50278854 1.66103558 11.81164851 0.42773438 6.9140625 C-0.09407034 4.57904596 -0.15376312 2.38332837 0 0 Z " fill="#E1ECF3" transform="translate(337,175)"/>
<path d="M0 0 C2.5 0.25 2.5 0.25 4.5 2.25 C4.75 4.75 4.75 4.75 4.5 7.25 C2.5 9.25 2.5 9.25 0 9.5 C-2.5 9.25 -2.5 9.25 -4.5 7.25 C-4.75 4.75 -4.75 4.75 -4.5 2.25 C-2.5 0.25 -2.5 0.25 0 0 Z " fill="#DDE8F1" transform="translate(251.5,213.75)"/>
<path d="M0 0 C0 0.66 0 1.32 0 2 C-7.26 2.33 -14.52 2.66 -22 3 C-19.69 3.33 -17.38 3.66 -15 4 C-15 4.33 -15 4.66 -15 5 C-21.1105424 5.11269443 -26.95170514 4.89604368 -33 4 C-33.33 3.01 -33.66 2.02 -34 1 C-29.80080999 0.85672455 -25.60159118 0.71433404 -21.40234375 0.57275391 C-19.97460118 0.5244931 -18.54686668 0.47599293 -17.11914062 0.42724609 C-15.06382299 0.35711339 -13.00847762 0.28784908 -10.953125 0.21875 C-9.09929199 0.1559082 -9.09929199 0.1559082 -7.20800781 0.09179688 C-4.80612685 0.02306725 -2.40286411 0 0 0 Z " fill="#BECDD6" transform="translate(271,89)"/>
<path d="M0 0 C4.55555556 0.55555556 4.55555556 0.55555556 6 2 C6.125 5 6.125 5 6 8 C5 9 5 9 2 9.125 C-1 9 -1 9 -2 8 C-2.1875 5.0625 -2.1875 5.0625 -2 2 C-1.34 1.34 -0.68 0.68 0 0 Z " fill="#D7E5EF" transform="translate(344,213)"/>
<path d="M0 0 C0.66 0.33 1.32 0.66 2 1 C-6.25 9.25 -14.5 17.5 -23 26 C-23.66 25.67 -24.32 25.34 -25 25 C-7.75536124 6.35508769 -7.75536124 6.35508769 0 0 Z " fill="#BBD4E3" transform="translate(170,131)"/>
<path d="M0 0 C0.66 0.33 1.32 0.66 2 1 C-5.26 8.26 -12.52 15.52 -20 23 C-20.66 22.67 -21.32 22.34 -22 22 C-8.38735178 7.03853755 -8.38735178 7.03853755 -1 1 C-0.67 0.67 -0.34 0.34 0 0 Z " fill="#48BDE6" transform="translate(151,114)"/>
<path d="M0 0 C2.31 0 4.62 0 7 0 C6.360625 0.309375 5.72125 0.61875 5.0625 0.9375 C3.06389179 1.8345163 3.06389179 1.8345163 2 3 C1.83996512 5.66426685 1.74057111 8.30560428 1.68359375 10.97265625 C1.66281265 11.77029892 1.64203156 12.56794159 1.62062073 13.38975525 C1.55503842 15.94724611 1.49620033 18.5048428 1.4375 21.0625 C1.39432301 22.79232882 1.35070899 24.52214679 1.30664062 26.25195312 C1.19934828 30.5011926 1.09810574 34.7505389 1 39 C0.67 39 0.34 39 0 39 C0 26.13 0 13.26 0 0 Z " fill="#18427C" transform="translate(100,326)"/>
<path d="M0 0 C5.28 0 10.56 0 16 0 C16 0.66 16 1.32 16 2 C17.32 2.33 18.64 2.66 20 3 C17.2291017 3.02696009 14.4584655 3.04681952 11.6875 3.0625 C10.50897461 3.07506836 10.50897461 3.07506836 9.30664062 3.08789062 C8.54931641 3.09111328 7.79199219 3.09433594 7.01171875 3.09765625 C5.96697388 3.10551147 5.96697388 3.10551147 4.90112305 3.11352539 C3 3 3 3 0 2 C0 1.34 0 0.68 0 0 Z " fill="#E4ECEF" transform="translate(247,84)"/>
<path d="M0 0 C0.66 0.33 1.32 0.66 2 1 C-3.28 6.28 -8.56 11.56 -14 17 C-14 11.79027084 -9.49956486 8.58109594 -6 5 C-4.05399166 3.22905099 -2.08162714 1.61326103 0 0 Z " fill="#62727E" transform="translate(192,185)"/>
<path d="M0 0 C6.93 0.495 6.93 0.495 14 1 C14 1.66 14 2.32 14 3 C12.88625 3.309375 11.7725 3.61875 10.625 3.9375 C7.2054845 4.82326483 7.2054845 4.82326483 5 6 C5 4.68 5 3.36 5 2 C3.35 1.67 1.7 1.34 0 1 C0 0.67 0 0.34 0 0 Z " fill="#D2DFE6" transform="translate(265,130)"/>
<path d="M0 0 C0.33 0.99 0.66 1.98 1 3 C0.67 3.33 0.34 3.66 0 4 C3.3 4.66 6.6 5.32 10 6 C10 6.33 10 6.66 10 7 C8.41676312 7.027193 6.83338938 7.04648306 5.25 7.0625 C3.92742187 7.07990234 3.92742187 7.07990234 2.578125 7.09765625 C0.2181162 7.00826198 -1.74498524 6.66912821 -4 6 C-3.6875 4.125 -3.6875 4.125 -3 2 C-2.01 1.34 -1.02 0.68 0 0 Z " fill="#657784" transform="translate(269,124)"/>
<path d="M0 0 C0.33 0 0.66 0 1 0 C1.33 3.3 1.66 6.6 2 10 C2.33 10 2.66 10 3 10 C2.67 12.64 2.34 15.28 2 18 C1.34 18 0.68 18 0 18 C0 12.06 0 6.12 0 0 Z " fill="#C2CACE" transform="translate(258,56)"/>
<path d="M0 0 C0.33 0.99 0.66 1.98 1 3 C-0.6396875 3.61875 -0.6396875 3.61875 -2.3125 4.25 C-5.51015942 5.60285591 -7.20653426 6.94055844 -9 10 C-9.25 7.6875 -9.25 7.6875 -9 5 C-6.76261752 2.59688549 -5.53659096 2.03658575 -2.25 1.8125 C-1.13625 1.9053125 -1.13625 1.9053125 0 2 C0 1.34 0 0.68 0 0 Z " fill="#667884" transform="translate(279,131)"/>
<path d="M0 0 C0.66 0.33 1.32 0.66 2 1 C-0.31 3.64 -2.62 6.28 -5 9 C-5.66 8.34 -6.32 7.68 -7 7 C-4.69 4.69 -2.38 2.38 0 0 Z " fill="#D9E0E4" transform="translate(292,34)"/>
<path d="M0 0 C2.475 0.495 2.475 0.495 5 1 C5.33 1.66 5.66 2.32 6 3 C4.68 2.67 3.36 2.34 2 2 C2 4.97 2 7.94 2 11 C1.67 11 1.34 11 1 11 C0.67 7.37 0.34 3.74 0 0 Z " fill="#84AAC3" transform="translate(337,175)"/>
<path d="M0 0 C0.66 0.33 1.32 0.66 2 1 C-0.97 3.97 -3.94 6.94 -7 10 C-7 6.04435836 -5.59478606 4.89133304 -3 2 C-2.01 1.34 -1.02 0.68 0 0 Z " fill="#D2D7DB" transform="translate(272,35)"/>
<path d="M0 0 C-2 2 -2 2 -4.8203125 2.1953125 C-5.91085938 2.17210937 -7.00140625 2.14890625 -8.125 2.125 C-9.22070312 2.10695312 -10.31640625 2.08890625 -11.4453125 2.0703125 C-12.28835937 2.04710937 -13.13140625 2.02390625 -14 2 C-14 1.67 -14 1.34 -14 1 C-12.23103898 0.63659714 -10.45973374 0.28459117 -8.6875 -0.0625 C-7.70136719 -0.25972656 -6.71523437 -0.45695312 -5.69921875 -0.66015625 C-3 -1 -3 -1 0 0 Z " fill="#26A4D9" transform="translate(255,35)"/>
<path d="M0 0 C1.32 0.33 2.64 0.66 4 1 C3.01 2.485 3.01 2.485 2 4 C1.54860541 6.0492094 1.54860541 6.0492094 1.375 8.1875 C1.25125 9.445625 1.1275 10.70375 1 12 C0.67 12 0.34 12 0 12 C0 8.04 0 4.08 0 0 Z " fill="#327CB0" transform="translate(344,179)"/>
<path d="M0 0 C1.98 0 3.96 0 6 0 C5.67 1.98 5.34 3.96 5 6 C3.31237149 4.3545622 1.6459651 2.68711423 0 1 C0 0.67 0 0.34 0 0 Z " fill="#CCDBE7" transform="translate(141,388)"/>
<path d="M0 0 C0.66 0.33 1.32 0.66 2 1 C-0.38957269 4.24299151 -2.2047869 6.50902342 -6 8 C-4.55746343 4.63408134 -2.66735273 2.48952921 0 0 Z " fill="#C0D0D7" transform="translate(267,156)"/>
<path d="M0 0 C2.97 0.33 5.94 0.66 9 1 C7.68 1.99 6.36 2.98 5 4 C1.125 2.25 1.125 2.25 0 0 Z " fill="#249FD3" transform="translate(331,36)"/>
<path d="M0 0 C1.98 0.99 1.98 0.99 4 2 C3.01 2.33 2.02 2.66 1 3 C1 5.64 1 8.28 1 11 C0.67 11 0.34 11 0 11 C0 7.37 0 3.74 0 0 Z " fill="#C7D7E1" transform="translate(259,116)"/>
</svg>
